<?xml version="1.0" encoding="UTF-8" standalone="no"?>
<!-- Created with Inkscape (http://www.inkscape.org/) -->

<svg
   width="297mm"
   height="210mm"
   viewBox="0 0 297 210"
   version="1.1"
   id="svg1"
   xml:space="preserve"
   inkscape:version="1.3.2 (091e20e, 2023-11-25, custom)"
   sodipodi:docname="mel-3D-escorrendo.svg..svg"
   xmlns:inkscape="http://www.inkscape.org/namespaces/inkscape"
   xmlns:sodipodi="http://sodipodi.sourceforge.net/DTD/sodipodi-0.dtd"
   xmlns:xlink="http://www.w3.org/1999/xlink"
   xmlns="http://www.w3.org/2000/svg"
   xmlns:svg="http://www.w3.org/2000/svg"><sodipodi:namedview
     id="namedview1"
     pagecolor="#ffffff"
     bordercolor="#666666"
     borderopacity="1.0"
     inkscape:showpageshadow="2"
     inkscape:pageopacity="0.0"
     inkscape:pagecheckerboard="0"
     inkscape:deskcolor="#d1d1d1"
     inkscape:document-units="mm"
     showguides="true"
     inkscape:zoom="0.27518964"
     inkscape:cx="952.07073"
     inkscape:cy="321.59641"
     inkscape:window-width="1920"
     inkscape:window-height="974"
     inkscape:window-x="-11"
     inkscape:window-y="-11"
     inkscape:window-maximized="1"
     inkscape:current-layer="layer1"
     inkscape:lockguides="false" /><defs
     id="defs1"><linearGradient
       id="linearGradient20"
       inkscape:collect="always"><stop
         style="stop-color:#ffda00;stop-opacity:0.50568181;"
         offset="0"
         id="stop20" /><stop
         style="stop-color:#ffea9d;stop-opacity:0.13920456;"
         offset="1"
         id="stop21" /></linearGradient><linearGradient
       id="linearGradient18"><stop
         style="stop-color:#ffdc6e;stop-opacity:0;"
         offset="0"
         id="stop17" /><stop
         style="stop-color:#ffe443;stop-opacity:1;"
         offset="0.89453125"
         id="stop18" /></linearGradient><inkscape:path-effect
       effect="fillet_chamfer"
       id="path-effect17"
       is_visible="true"
       lpeversion="1"
       nodesatellites_param="F,0,0,1,0,0,0,1 @ F,0,0,1,0,0,0,1 @ F,0,0,1,0,0,0,1 @ F,0,0,1,0,0,0,1 @ F,0,0,1,0,0,0,1 @ F,0,0,1,0,0,0,1 @ F,0,0,1,0,0,0,1 @ F,0,0,1,0,0,0,1 @ F,0,0,1,0,0,0,1 @ F,0,0,1,0,0,0,1 @ F,0,0,1,0,0,0,1 @ F,0,0,1,0,0,0,1 @ F,0,0,1,0,0,0,1 @ F,0,0,1,0,0,0,1 @ F,0,0,1,0,0,0,1 @ F,0,0,1,0,0,0,1 @ F,0,0,1,0,0,0,1 @ F,0,0,1,0,0,0,1 @ F,0,0,1,0,0,0,1 @ F,0,0,1,0,0,0,1 @ F,0,0,1,0,0,0,1 @ F,0,0,1,0,0,0,1 @ F,0,0,1,0,0,0,1 @ F,0,0,1,0,0,0,1 @ F,0,0,1,0,0,0,1 @ F,0,0,1,0,0,0,1 @ F,0,0,1,0,0,0,1 @ F,0,0,1,0,0,0,1 @ F,0,0,1,0,0,0,1 @ F,0,0,1,0,0,0,1 @ F,0,0,1,0,0,0,1 @ F,0,0,1,0,0,0,1 @ F,0,0,1,0,0,0,1 @ F,0,0,1,0,25.349791,0,1 @ F,0,0,1,0,74.21064,0,1 @ F,0,0,1,0,0,0,1"
       radius="0"
       unit="px"
       method="auto"
       mode="F"
       chamfer_steps="1"
       flexible="false"
       use_knot_distance="true"
       apply_no_radius="true"
       apply_with_radius="true"
       only_selected="false"
       hide_knots="false" /><linearGradient
       id="linearGradient15"
       inkscape:collect="always"><stop
         style="stop-color:#ffbf00;stop-opacity:1;"
         offset="0.49027741"
         id="stop15" /><stop
         style="stop-color:#ffc300;stop-opacity:0;"
         offset="1"
         id="stop16" /></linearGradient><inkscape:path-effect
       effect="fillet_chamfer"
       id="path-effect15"
       is_visible="true"
       lpeversion="1"
       nodesatellites_param="F,0,0,1,0,0,0,1 @ F,0,0,1,0,0,0,1 @ F,0,0,1,0,0,0,1 @ F,0,0,1,0,0,0,1 @ F,0,0,1,0,0,0,1 @ F,0,0,1,0,0,0,1 @ F,0,0,1,0,0,0,1 @ F,0,0,1,0,0,0,1 @ F,0,0,1,0,0,0,1 @ F,0,0,1,0,0,0,1 @ F,0,0,1,0,0,0,1 @ F,0,0,1,0,0,0,1 @ F,0,0,1,0,0,0,1 @ F,0,0,1,0,0,0,1 @ F,0,0,1,0,0,0,1 @ F,0,0,1,0,0,0,1 @ F,0,0,1,0,0,0,1 @ F,0,0,1,0,0,0,1 @ F,0,0,1,0,0,0,1 @ F,0,0,1,0,0,0,1 @ F,0,0,1,0,0,0,1 @ F,0,0,1,0,0,0,1 @ F,0,0,1,0,0,0,1 @ F,0,0,1,0,0,0,1 @ F,0,0,1,0,0,0,1 @ F,0,0,1,0,0,0,1 @ F,0,0,1,0,0,0,1 @ F,0,0,1,0,0,0,1 @ F,0,0,1,0,0,0,1 @ F,0,0,1,0,0,0,1 @ F,0,0,1,0,0,0,1 @ F,0,0,1,0,0,0,1 @ F,0,0,1,0,0,0,1 @ F,0,0,1,0,2.8000886,0,1 @ F,0,1,1,0,2.8000886,0,1 @ F,0,0,1,0,0,0,1"
       radius="0"
       unit="px"
       method="auto"
       mode="F"
       chamfer_steps="1"
       flexible="false"
       use_knot_distance="true"
       apply_no_radius="true"
       apply_with_radius="true"
       only_selected="false"
       hide_knots="false" /><linearGradient
       id="linearGradient4-1"><stop
         style="stop-color:#ffc200;stop-opacity:0;"
         offset="0"
         id="stop13" /><stop
         style="stop-color:#ffc900;stop-opacity:1;"
         offset="0.51171875"
         id="stop14" /></linearGradient><linearGradient
       id="linearGradient4-2"><stop
         style="stop-color:#f7cf52;stop-opacity:0;"
         offset="0"
         id="stop5" /><stop
         style="stop-color:#ffda00;stop-opacity:1;"
         offset="0.51171875"
         id="stop4" /></linearGradient><inkscape:path-effect
       effect="fillet_chamfer"
       id="path-effect1"
       is_visible="true"
       lpeversion="1"
       nodesatellites_param="F,0,0,1,0,0,0,1 @ F,0,0,1,0,0,0,1 @ F,0,0,1,0,0,0,1 @ F,0,0,1,0,0,0,1 @ F,0,0,1,0,0,0,1 @ F,0,0,1,0,0,0,1 @ F,0,0,1,0,0,0,1 @ F,0,0,1,0,0,0,1 @ F,0,0,1,0,0,0,1 @ F,0,0,1,0,0,0,1 @ F,0,0,1,0,0,0,1 @ F,0,0,1,0,0,0,1 @ F,0,0,1,0,0,0,1 @ F,0,0,1,0,0,0,1 @ F,0,0,1,0,0,0,1 @ F,0,0,1,0,0,0,1 @ F,0,0,1,0,0,0,1 @ F,0,0,1,0,0,0,1 @ F,0,0,1,0,0,0,1 @ F,0,0,1,0,0,0,1 @ F,0,0,1,0,0,0,1 @ F,0,0,1,0,0,0,1 @ F,0,0,1,0,0,0,1 @ F,0,0,1,0,0,0,1 @ F,0,0,1,0,0,0,1 @ F,0,0,1,0,0,0,1 @ F,0,0,1,0,0,0,1 @ F,0,0,1,0,0,0,1 @ F,0,0,1,0,0,0,1 @ F,0,0,1,0,0,0,1 @ F,0,0,1,0,0,0,1 @ F,0,0,1,0,0,0,1 @ F,0,0,1,0,0,0,1 @ F,0,0,1,0,2.8000886,0,1 @ F,0,1,1,0,2.8000886,0,1 @ F,0,0,1,0,0,0,1"
       radius="0"
       unit="px"
       method="auto"
       mode="F"
       chamfer_steps="1"
       flexible="false"
       use_knot_distance="true"
       apply_no_radius="true"
       apply_with_radius="true"
       only_selected="false"
       hide_knots="false" /><linearGradient
       inkscape:collect="always"
       xlink:href="#linearGradient4-2"
       id="linearGradient5"
       x1="104.49255"
       y1="-11.654939"
       x2="104.89445"
       y2="169.19757"
       gradientUnits="userSpaceOnUse" /><linearGradient
       inkscape:collect="always"
       xlink:href="#linearGradient15"
       id="linearGradient16"
       x1="105.86144"
       y1="172.52309"
       x2="106.85871"
       y2="-17.570829"
       gradientUnits="userSpaceOnUse" /><linearGradient
       inkscape:collect="always"
       xlink:href="#linearGradient20"
       id="linearGradient21"
       x1="104.99123"
       y1="66.991142"
       x2="104.43854"
       y2="175.5303"
       gradientUnits="userSpaceOnUse" /><filter
       style="color-interpolation-filters:sRGB"
       inkscape:label="Blur"
       id="filter29"
       x="-0.058651252"
       y="-0.077042629"
       width="1.1173025"
       height="1.1540853"><feGaussianBlur
         stdDeviation="0.23429765"
         result="blur"
         id="feGaussianBlur29" /></filter><filter
       inkscape:collect="always"
       style="color-interpolation-filters:sRGB"
       id="filter30"
       x="-0.065952328"
       y="-0.062238078"
       width="1.1319047"
       height="1.1244762"><feGaussianBlur
         inkscape:collect="always"
         stdDeviation="0.302 0.267"
         id="feGaussianBlur30" /></filter><filter
       inkscape:collect="always"
       style="color-interpolation-filters:sRGB"
       id="filter31"
       x="-0.076547101"
       y="-0.17070528"
       width="1.1530942"
       height="1.3414106"><feGaussianBlur
         inkscape:collect="always"
         stdDeviation="0.2665517"
         id="feGaussianBlur31" /></filter><filter
       inkscape:collect="always"
       style="color-interpolation-filters:sRGB"
       id="filter32"
       x="-0.055832825"
       y="-0.11420667"
       width="1.1116657"
       height="1.2284133"><feGaussianBlur
         inkscape:collect="always"
         stdDeviation="0.1013741"
         id="feGaussianBlur32" /></filter><filter
       inkscape:collect="always"
       style="color-interpolation-filters:sRGB"
       id="filter33"
       x="-0.055587492"
       y="-0.022628538"
       width="1.111175"
       height="1.0452571"><feGaussianBlur
         inkscape:collect="always"
         stdDeviation="0.25609089"
         id="feGaussianBlur33" /></filter><filter
       inkscape:collect="always"
       style="color-interpolation-filters:sRGB"
       id="filter34"
       x="-0.067406859"
       y="-0.039378281"
       width="1.1348137"
       height="1.0787566"><feGaussianBlur
         inkscape:collect="always"
         stdDeviation="0.42833586"
         id="feGaussianBlur34" /></filter><filter
       inkscape:collect="always"
       style="color-interpolation-filters:sRGB"
       id="filter35"
       x="-0.089053111"
       y="-0.02700623"
       width="1.1781062"
       height="1.0540125"><feGaussianBlur
         inkscape:collect="always"
         stdDeviation="0.10565332"
         id="feGaussianBlur35" /></filter><filter
       inkscape:collect="always"
       style="color-interpolation-filters:sRGB"
       id="filter36"
       x="-0.022312948"
       y="-0.070746585"
       width="1.0446259"
       height="1.1414932"><feGaussianBlur
         inkscape:collect="always"
         stdDeviation="0.048194852"
         id="feGaussianBlur36" /></filter><clipPath
       clipPathUnits="userSpaceOnUse"
       id="clipPath43"><path
         id="path43"
         style="fill:#ff0000;fill-opacity:1;fill-rule:nonzero;stroke:none;stroke-width:0.262494"
         d="M -0.92351878,-18.037376 V 175.52983 H 211.65381 V -18.037376 Z M 35.246679,-2.4180926 c 0.28559,0.00362 0.608088,0.018518 1.00036,0.02424 0.5494,0.00802 1.098511,0.030592 1.647839,0.04242 2.711541,0.058385 1.167806,-0.038494 3.896308,0.2237169 0.536276,0.00897 1.047587,0.1928794 1.577053,0.2489673 0.03838,0.00406 -0.144675,-0.033828 -0.107218,-0.042926 0.106403,-0.025838 0.219968,-0.083889 0.32478,-0.05252 0.57062,0.1707802 1.108187,0.4312008 1.662411,0.6469107 3.145639,1.22432277 -5.766485,1.44366737 -2.488932,2.2811054 0.458235,0.1170827 0.924811,0.2062678 1.374585,0.3509782 0.06171,0.019852 -0.128328,0.019625 -0.192578,0.02929 -0.171574,0.025799 -0.341432,0.067388 -0.514754,0.077266 C 42.752,1.4497976 42.105716,1.266756 41.443508,1.1770343 40.88367,1.1196702 40.3259,1.0368775 39.763919,1.0048277 38.582403,0.93744714 37.397494,0.95447114 36.21425,0.92806701 35.810091,0.91904836 35.227727,1.231955 35.001534,0.90685715 34.941817,0.82103075 34.969766,0.7437969 35.033283,0.669 c -0.164877,0.19040476 -0.329019,0.3812398 -0.503826,0.5630802 -0.03984,0.041442 -0.113581,0.025989 -0.170196,0.039895 -0.192288,0.047229 -0.380976,0.1092068 -0.576171,0.1434211 -1.177103,0.206326 -2.337109,0.049586 -3.525205,0.2328072 -0.322624,0.031424 -4.438332,0.4284504 -4.880017,0.4853092 -3.128068,0.4026841 -0.14311,0.07226 -2.656527,0.5514652 C 22.34877,2.7560125 21.947608,2.5171593 21.583052,2.6476076 20.558203,2.6032492 19.531425,2.5443795 18.504937,2.5592318 18.365307,2.9256332 17.87553,3.2867607 16.842005,3.6561017 16.13239,3.9096898 15.328471,3.6883881 14.573236,3.651052 11.007903,3.4747919 7.4625253,2.9840264 3.8851906,2.9874759 c -3.38928754,0.00327 -3.15403034,-3.31750399 0.2352568,-3.31383938 3.3995959,0.003674 6.7719776,0.43082012 10.1587176,0.62822545 0.01968,-0.13435647 0.05037,-0.2670297 0.100452,-0.39743844 0.203133,-0.52890107 1.100533,-0.37808375 1.670739,-0.48985428 1.808857,-0.35456829 3.848933,-0.1650747 5.684676,-0.0858507 0.210218,-0.45236895 0.745681,0.2115655 1.04148,0.0348451 0.05646,-0.0337305 -0.125125,-0.0413951 -0.187893,-0.0621155 0.71307,-0.14316206 1.419436,-0.32199095 2.13917,-0.42925405 0.612537,-0.091287 4.561384,-0.4681777 5.188139,-0.5292447 1.085896,-0.3653524 2.232951,0.0547 3.320139,-0.2065468 0.791385,-0.4931292 1.282904,-0.5637296 2.010612,-0.5544952 z m 0.593346,2.14980402 c -0.254968,0.29201612 -0.504894,0.58846374 -0.757818,0.882243 0.279213,-0.24736578 0.961573,-0.47570292 0.757818,-0.882243 z" /></clipPath><clipPath
       clipPathUnits="userSpaceOnUse"
       id="clipPath44"><path
         id="path44"
         style="fill:#ff0000;fill-opacity:1;fill-rule:nonzero;stroke:none;stroke-width:0.264583"
         d="M -0.92366915,-18.037486 V 175.53003 H 211.6556 V -18.037486 Z M 36.928285,0.3355543 c 0.283551,0.003709 0.603747,0.0189495 0.993219,0.0248047 0.545478,0.008202 1.090671,0.0313042 1.636078,0.0434083 2.692185,0.059745 1.15947,-0.0393904 3.868496,0.2289265 0.532448,0.009176 1.040109,0.19737096 1.565797,0.25476491 0.03811,0.004159 -0.143643,-0.0346152 -0.106453,-0.0439251 0.105643,-0.0264398 0.218398,-0.0858425 0.322461,-0.0537435 0.566547,0.17475703 1.100278,0.44124189 1.650545,0.66197499 3.123187,1.2528331 -5.725324,1.4772855 -2.471166,2.3342246 0.454964,0.1198091 0.91821,0.2110711 1.364774,0.3591512 0.06127,0.020315 -0.127413,0.020082 -0.191204,0.029972 -0.170349,0.0264 -0.338995,0.068957 -0.51108,0.079065 -0.669718,0.039336 -1.311389,-0.1479677 -1.96887,-0.2397787 -0.555842,-0.0587 -1.109631,-0.1434205 -1.6676,-0.1762167 -1.173083,-0.06895 -2.349535,-0.051529 -3.524332,-0.078548 -0.401275,-0.00923 -0.979482,0.3109646 -1.204061,-0.021704 -0.05929,-0.087825 -0.03154,-0.1668574 0.03152,-0.2433961 -0.163701,0.1948387 -0.326671,0.3901176 -0.500229,0.5761924 -0.03955,0.042407 -0.112771,0.026594 -0.168982,0.040824 -0.190915,0.048329 -0.378256,0.11175 -0.572058,0.146761 -1.168702,0.2111306 -2.320428,0.050741 -3.500043,0.2382284 -0.320321,0.032156 -4.406652,0.4384276 -4.845184,0.4966105 -3.10574,0.4120608 -0.142089,0.073942 -2.637565,0.5643065 -0.369912,0.072689 -0.76821,-0.1717265 -1.130164,-0.03824 C 22.344653,5.4738261 21.325204,5.4135855 20.306043,5.4287837 20.167409,5.8037174 19.681129,6.1732543 18.654981,6.551196 17.95043,6.8106893 17.152249,6.5842342 16.402405,6.5460287 12.862521,6.3656641 9.34245,5.8634703 5.7906497,5.8670001 2.4255543,5.8703471 2.6591323,2.4722428 6.0242273,2.4759927 c 3.3753301,0.00376 6.7236397,0.4408525 10.0862057,0.6428547 0.01955,-0.1374852 0.05001,-0.2732479 0.09974,-0.4066934 0.201683,-0.5412174 1.092677,-0.3868881 1.658813,-0.5012613 1.795945,-0.362825 3.82146,-0.1689188 5.6441,-0.08785 0.208717,-0.4629031 0.740358,0.2164921 1.034046,0.035657 0.05606,-0.034516 -0.124232,-0.042359 -0.186552,-0.063562 0.70798,-0.1464958 1.409304,-0.329489 2.123901,-0.4392498 0.608164,-0.093413 4.528825,-0.47908 5.151107,-0.541569 1.078145,-0.37386025 2.217012,0.055974 3.296441,-0.21135661 0.785735,-0.50461254 1.273746,-0.57685702 1.99626,-0.56740716 z M 37.517395,2.53542 C 37.264247,2.8342362 37.016105,3.1375871 36.764987,3.4382074 37.042206,3.1850813 37.719696,2.951427 37.517395,2.53542 Z" /></clipPath></defs><g
     inkscape:label="Camada 1"
     inkscape:groupmode="layer"
     id="layer1"><g
       id="g79"
       transform="matrix(1.4238715,0,0,1,-0.20309742,0)"><path
         id="path14"
         clip-path="url(#clipPath43)"
         style="mix-blend-mode:normal;fill:url(#linearGradient16);fill-opacity:1;stroke:none;stroke-width:0.264583px;stroke-linecap:butt;stroke-linejoin:miter;stroke-opacity:1"
         transform="matrix(0.99286216,0,0,1.0232866,0.95465065,-6.8004844)"
         d="m 211.01206,-18.012631 c -0.7466,-0.170485 -2.41533,0.613937 -5.20375,1.857406 1.84244,-0.129578 3.73795,-0.241135 5.78721,-0.329767 -0.0168,-0.838431 -0.13703,-1.425696 -0.58346,-1.527639 z m 0.36485,4.862688 c -4.16912,0.188245 -7.88467,0.496618 -11.76387,0.844873 3.28563,0.52053 6.57222,1.035801 9.85424,1.576624 0.30576,-0.01945 0.61296,-0.03687 0.90823,0.0308 0.23967,0.05493 0.48848,0.131126 0.73492,0.204527 0.089,-0.816988 0.18592,-1.936645 0.26648,-2.656829 z M 1.2729044,0.03067424 c 0.0099,0.02315668 0.020262,0.05079427 0.030188,0.07423565 0.056445,-0.01870645 0.12418,-0.0294912 0.1832087,-0.04646041 C 1.4137119,0.0503533 1.3444952,0.03961257 1.2729044,0.03067424 Z M 9.2945332,1.4739771 c -0.015967,0.055779 -0.02335,0.1079676 -0.038516,0.1636214 0.030862,0.00109 0.061781,9.376e-4 0.092645,0.00202 -0.017408,-0.055284 -0.03724,-0.1103015 -0.05413,-0.1656414 z M 20.359405,1.8254602 c 0.398215,0.063884 0.81163,0.1041071 1.315252,0.2045268 0.126289,0.00995 0.252603,0.00333 0.378909,0.00454 -0.05379,-0.015619 -0.10882,-0.026499 -0.16239,-0.042925 l -0.33623,-0.1318062 c -0.398695,-0.00866 -0.797192,-0.020465 -1.195541,-0.03434 z M 192.07962,3.7884126 c -0.007,0.00104 -0.0135,0.00201 -0.0203,0.00303 -0.0387,0.019583 -0.0431,0.022128 -0.09,0.04545 0.008,-4.004e-4 0.016,-6.094e-4 0.0239,-0.00101 0.0712,-0.038801 0.0439,-0.024395 0.0864,-0.04747 z m -5.6394,0.061106 c -0.0202,0.00253 -0.0401,0.00696 -0.0599,0.01111 -0.005,9.879e-4 -0.0104,0.011688 -0.008,0.011615 0.0221,-3.357e-4 0.0447,-0.010032 0.0677,-0.022725 z m -0.97537,0.3762283 c -0.10591,0.062714 -0.21093,0.1268973 -0.31698,0.1893767 0.006,8.72e-5 0.0121,4.125e-4 0.0182,5.05e-4 0.044,-0.020213 0.0863,-0.038904 0.29667,-0.110091 0.0111,-0.00376 0.0226,-0.0062 0.0338,-0.0096 -0.008,-0.017444 -0.0176,-0.034073 -0.0255,-0.05151 -0.003,-0.00602 -0.004,-0.012596 -0.006,-0.018685 z M 97.178525,4.3595727 c -0.162308,0.080161 -0.32717,0.1547009 -0.487169,0.2398771 0.04545,-0.00234 0.0909,-0.0048 0.136365,-0.00707 0.0066,-3.293e-4 0.0097,-6.913e-4 0.01614,-0.00101 0.116745,-0.071676 0.220741,-0.1570863 0.334669,-0.231797 z m 99.584365,0.1318062 c 5.8e-4,0.0032 0.002,0.00586 0.002,0.00909 0.0149,0.019217 0.0307,0.037793 0.0463,0.05656 5e-4,-0.021904 -8e-5,-0.043761 0,-0.065651 -0.0161,5.35e-5 -0.0323,-3.92e-5 -0.0484,0 z m -0.31228,0.1494813 c -0.007,1.132e-4 -0.0102,0.00196 -0.0172,0.00253 0.0103,7.15e-5 0.0204,2.813e-4 0.0307,-5.05e-4 0.0171,-0.00132 0.004,-0.00232 -0.0135,-0.00202 z m -32.47792,0.2383621 c -0.28884,0.1008163 -0.31415,0.098991 -0.42419,0.1343312 0.0186,-0.00368 0.0377,-0.00444 0.0562,-0.00859 0.12671,-0.028433 0.24532,-0.083821 0.36798,-0.1257461 z m 32.31136,0.02727 c 0.006,0.00417 0.0116,0.00787 0.0172,0.01212 0.0265,0.00313 0.10597,0.015931 0.0796,0.0096 -0.0693,-0.017149 -0.0592,-0.013018 -0.0968,-0.021715 z M 56.77735,5.0231486 c -0.564106,-0.028854 -1.360913,0.02266 -1.833128,0.04949 -0.718534,0.040826 -3.386423,0.2324389 -4.06026,0.2802775 -0.576997,0.040963 -0.994708,-0.088536 -1.261642,-0.2964376 -0.118104,0.018277 -0.236117,0.02021 -0.353926,0.04646 -0.06211,0.01015 -0.124285,0.019799 -0.186332,0.0303 -0.480301,0.1823964 -0.984699,0.2802437 -1.521882,0.1833166 -0.233215,-0.00264 -0.476914,-7.422e-4 -0.650599,-0.00101 -1.223031,-0.00188 -1.240397,-0.00108 -2.555554,-0.00101 -1.620336,0.00358 -3.241685,0.03908 -4.861278,-0.0202 -2.136872,-0.041074 -1.628618,-0.023083 -1.098732,-0.01111 -0.416471,0.01209 -0.831073,0.052776 -1.249671,0.033835 -0.175563,-2e-7 -0.351153,9.08e-5 -0.526725,0 -0.254839,0.104459 -0.230237,0.2840083 -1.036795,0.1722065 -0.223113,-0.030927 -0.436338,-0.1035849 -0.650599,-0.1722065 -0.381347,-1.18e-5 -0.762704,-8.21e-4 -1.144014,0 -1.875969,0.00886 -3.752969,0.018469 -5.628465,-0.0202 -0.118491,0.00923 -0.236798,0.021516 -0.355487,0.027775 -0.154662,0.00816 -0.309898,0.0011 -0.464788,0.00152 -0.11196,2.894e-4 -0.223822,2.871e-4 -0.335709,5.05e-4 -1.495152,0.039568 -2.990924,0.1163675 -4.484972,0.063631 -0.218903,0.012559 -0.437803,0.024365 -0.656324,0.04343 -0.246848,0.017028 -0.493439,0.040424 -0.740642,0.051511 -0.114374,0.00513 -0.229659,-0.020281 -0.343517,-0.00859 -0.881315,0.090687 0.743582,-0.034296 -0.655283,0.083831 -0.143713,0.012135 -0.287968,0.015917 -0.431998,0.023735 -0.187944,0.00677 -0.376159,0.016858 -0.5642,0.0202 -0.08693,0.00155 -0.329529,-0.013054 -0.426793,-0.00656 -0.07881,0.00524 -0.156758,0.020185 -0.235257,0.028785 -0.140893,0.015439 -0.281819,0.031865 -0.42315,0.042925 -0.142939,0.011187 -0.286222,0.015809 -0.429395,0.023735 -0.174794,0.010304 -0.349216,0.023012 -0.524123,0.03131 -0.32769,0.015547 -0.657384,0.015608 -0.984226,0.046965 -0.173418,0.016637 -0.346277,0.039603 -0.519439,0.05858 -0.24379,0.026723 -0.487408,0.052247 -0.731273,0.078276 -0.156641,0.01059 -0.313344,0.021396 -0.469993,0.031815 -0.09401,0.00625 -0.525882,0.045253 -0.716701,0.035855 -0.08605,-0.00424 -0.171835,-0.014553 -0.257637,-0.02222 -0.0041,-3.703e-4 0.02608,0.0054 0.01145,-0.00404 -0.138684,-0.013558 -0.08909,-0.012292 -0.319575,0.00404 -0.529668,0.037534 -1.056311,0.1237053 -1.588503,0.1222111 -0.382842,0.021694 -0.763197,0.055647 -1.147137,0.060601 -0.09517,0.00123 -0.190043,-0.017202 -0.285222,-0.01717 -0.07753,2.54e-5 -0.154641,0.00518 -0.2321341,0.00758 -0.4441609,0.024181 0.1113204,-0.016953 -0.55483,0.091398 C 8.704695,6.3138401 8.1077555,6.2123741 7.5316694,6.1084032 6.735131,5.9409566 7.4456168,6.0750251 6.8394318,5.9932622 c -0.02293,-0.00309 -0.043501,-0.017034 -0.066621,-0.01818 -0.062937,-0.00312 -0.1259188,0.00495 -0.188934,0.00556 -0.3094399,0.00298 -0.2649322,-3.173e-4 -0.5850189,-0.02121 -0.058509,-0.00866 -0.1190858,-0.01024 -0.175922,-0.02626 -0.022532,-0.00635 0.094068,-7.02e-4 0.070785,-0.00354 C 5.8010423,5.9183907 5.706463,5.922157 5.6142232,5.9079164 4.8211916,5.7854834 6.0215034,5.9194792 5.1973192,5.8144906 4.9529598,5.7497594 5.0463828,5.7670007 4.6757988,5.7362149 4.1455667,5.6921669 3.6132872,5.6625139 3.0810499,5.6639993 2.8237893,5.6775083 2.5682043,5.7084008 2.3107403,5.7205598 2.14772,5.7282598 2.2579931,5.7035978 2.0942209,5.7220748 2.036742,5.7285648 1.9801124,5.739908 1.9229832,5.74884 1.8035229,5.764202 1.684353,5.7844074 1.5643729,5.7953004 c -0.049472,0.00449 -0.09917,1.439e-4 -0.1488572,0 C 1.294624,5.7949745 1.1736758,5.7932887 1.0527416,5.7917654 0.78354192,5.8348849 0.49144928,5.9117281 0.24339608,5.9250866 -0.51363185,103.7446 0.37984084,87.402844 -0.92351878,121.55899 c 0.89318953,1.67496 2.87257168,3.32982 4.75978428,3.12598 3.0634653,-0.33089 3.3842174,-6.58203 6.4653955,-6.60748 2.963828,-0.0245 4.64907,3.80656 6.322784,6.25246 4.605805,6.73154 4.424391,16.25802 9.733486,22.44998 2.660066,3.10214 6.286032,6.52073 10.372634,6.53627 5.125828,0.0195 9.609285,-4.32007 13.072361,-8.09926 5.609649,-6.12166 6.499196,-15.41014 11.22518,-22.23686 2.050985,-2.96279 3.862908,-6.93422 7.31794,-7.95736 2.555384,-0.75672 5.284239,0.96278 7.743693,1.98921 3.234532,1.34989 5.539492,5.78591 9.023032,5.39951 1.98115,-0.21975 3.173564,-2.49924 4.333511,-4.12033 2.3061,-3.22291 1.648595,-8.64216 4.973181,-10.79902 1.688779,-1.09562 4.063934,-0.46032 6.039127,-0.0712 1.48857,0.29332 2.73657,2.2076 4.19142,1.7761 2.35482,-0.69851 3.11958,-3.86675 4.12063,-6.11005 2.09951,-4.704788 0.4403,-11.055418 3.76567,-14.990554 1.36886,-1.619839 3.7902,-3.152713 5.82573,-2.557342 6.2281,1.821678 8.5567,10.108717 10.7989,16.198016 6.69139,18.17009 2.36121,38.84663 6.82037,57.68919 1.09028,4.60723 1.63187,9.86714 4.83109,13.35686 1.44596,1.57772 3.71133,3.03122 5.82572,2.69925 2.48343,-0.38991 4.2136,-2.98071 5.54155,-5.11519 7.67091,-12.32998 5.75452,-28.84364 12.3619,-41.77447 0.95266,-1.86438 1.7471,-4.83905 3.83646,-4.97329 2.74032,-0.17608 3.67684,4.11633 5.82572,5.82573 0.69936,0.55635 1.38081,1.37868 2.27346,1.42109 1.48105,0.0704 3.03751,-0.8439 3.97854,-1.98972 6.01639,-7.32541 2.50129,-19.38821 7.53082,-27.42326 1.63824,-2.617218 3.95704,-5.403107 6.96245,-6.110049 2.52741,-0.59447 5.06036,1.190489 7.53082,1.989212 1.25541,0.405902 2.4037,1.694979 3.69436,1.421083 1.7036,-0.361529 3.62277,-1.954572 3.69437,-3.694613 1.30363,-31.687207 0.29978,-54.88294 0.51631,-88.6454571 -0.007,0.00194 -0.013,0.00608 -0.0198,0.00758 -0.003,0.00757 -0.006,0.015426 -0.01,0.022725 -0.1243,0.2130714 -0.25325,0.190441 -0.4117,0.1893767 -0.0876,2.836e-4 -0.17118,0.017804 -0.25972,0.00657 -0.1242,-0.015904 -0.1377,0.00758 -0.11554,-0.02828 -0.0498,-0.040487 2.1e-4,-0.00401 -0.15771,-0.014645 -0.0818,-0.00551 -0.15646,-0.017925 -0.23734,-0.02929 -0.0293,-0.00412 -0.06,-0.00265 -0.088,-0.01212 -0.003,-0.00108 0.003,-6.049e-4 0.005,-0.00101 -0.10482,0.0049 -0.20853,0.00697 -0.31385,-0.00252 -0.0514,-0.00472 -0.0761,-0.015167 -0.1244,-0.023735 -0.0205,-0.00364 -0.0413,-0.00614 -0.0619,-0.00909 -0.0225,-0.00288 -0.045,-0.00724 -0.0677,-0.00859 -0.026,-0.00155 -0.052,-5.44e-5 -0.0781,0 -0.1059,2.208e-4 -0.2121,0.00225 -0.31801,0.00152 -0.16293,-0.0016 -0.13176,-7.311e-4 -0.29876,-0.00404 -0.11834,-0.00234 -0.2366,-0.00894 -0.35392,0.011615 -0.0479,0.00442 -0.0956,0.010565 -0.14365,0.01313 -0.0347,0.00185 -0.0699,2.323e-4 -0.10462,0 -0.0916,-6.118e-4 -0.18294,-0.00198 -0.27429,-0.00707 -0.14065,0.00771 -0.28008,0.036514 -0.42159,0.025755 -0.10427,-0.00461 -0.2094,0.015229 -0.31385,0.00505 -0.0478,-0.00368 -0.0955,-0.00631 -0.14313,-0.01111 -0.0124,-0.00125 -0.0247,-0.00311 -0.0364,-0.00707 -0.002,-6.616e-4 -0.001,-0.00591 -0.002,-0.00606 -0.0619,-0.00436 -0.12583,0.00985 -0.18737,-0.00455 -0.0708,-0.012029 0.0101,-8.72e-5 -0.14782,-0.010605 -0.17836,-0.011882 -0.35521,-0.039042 -0.53297,-0.05656 -0.008,-0.00205 -0.0169,-0.00296 -0.025,-0.00606 -0.002,-9.401e-4 -0.002,-0.00538 -0.005,-0.00556 -0.0265,-0.00178 -0.0531,-4.592e-4 -0.0796,-5.05e-4 -0.0938,-1.615e-4 -0.18782,-1.752e-4 -0.28158,0 -0.17086,8.932e-4 -0.34185,0.00345 -0.51267,-0.00303 -0.0162,-7.486e-4 -0.0322,-0.00127 -0.0484,-0.00202 0.006,-0.00126 0.0228,3.253e-4 0.0187,-0.00404 -0.005,-0.00461 -0.0127,0.00141 -0.0198,0.00252 -0.0297,0.00508 -0.0591,0.012495 -0.089,0.01616 -0.12822,0.015726 -0.12808,0.012065 -0.24462,0.0101 -0.10148,-0.00246 -0.10515,-0.00258 -0.21288,-0.00354 -0.0554,-4.85e-4 -0.10347,-0.00282 -0.15614,0.01616 -0.1185,0.023506 -0.24157,0.046769 -0.3633,0.037875 -0.0601,-0.00439 -0.14107,0.020219 -0.17904,-0.02525 -0.009,-0.010649 -0.0119,-0.01423 -0.0203,-0.02424 -0.13663,6.179e-4 -0.273,0.00171 -0.40962,0.00152 -0.0301,-8.718e-4 -0.0605,-0.00145 -0.0906,-0.00253 -0.1623,0.017301 -0.34447,0.032851 -0.46323,0.03737 -0.10309,0.00392 -0.18812,0.00366 -0.27325,0.00152 -0.001,1.836e-4 -0.002,3.26e-4 -0.003,5.05e-4 -0.0491,0.00847 -0.179,0.021399 -0.21496,0.02525 -0.098,-1.08e-5 -0.14777,2.907e-4 -0.24983,-0.00101 -0.0351,-4.486e-4 -0.0705,-0.00112 -0.10566,-0.00202 -0.0147,-3.743e-4 -0.029,-0.00113 -0.0437,-0.00202 -0.007,-4.505e-4 -0.0244,0.00492 -0.0224,-0.00202 6.8e-4,-0.00221 0.004,-0.00212 0.006,-0.00303 -0.0125,0.00322 -0.0455,0.00939 -0.088,0.01616 -2.9e-4,3.969e-4 -0.004,0.00222 -0.005,0.00253 -0.004,6.854e-4 -0.006,4.549e-4 -0.0125,0.00152 0.006,-0.00162 0.004,-0.00103 0.014,-0.00354 -0.0172,0.00278 -0.0121,0.00116 -0.0489,0.00808 -0.0114,0.00214 0.0156,-0.00188 0.0343,-0.00454 -0.0732,0.018158 -0.0167,0.0092 -0.18009,0.0303 -0.0849,1.587e-4 -0.16961,4.28e-4 -0.25451,-0.00101 -0.12957,-6.09e-5 -0.26155,0.016061 -0.38828,-0.016665 -0.0657,-0.00166 -0.13651,-0.00408 -0.19466,-0.024745 -0.0118,-0.00422 0.0253,5.776e-4 0.038,0.00101 -0.0158,-7.906e-4 -0.0316,-0.00113 -0.0474,-0.00202 -0.0118,-6.644e-4 -0.0322,0.00662 -0.038,0 -0.0669,0.00983 -0.20783,0.029706 -0.11086,0.017675 -0.0976,0.00527 -0.19562,0.024024 -0.29251,0.02222 -0.0257,0.00284 -0.0513,0.00669 -0.077,0.00859 -0.007,5.158e-4 -0.0706,-4.532e-4 -0.0817,0.00303 -0.0931,0.029366 -0.1166,0.040138 -0.0895,0.020705 -0.14152,0.067545 -0.16964,0.077885 -0.30448,0.075246 -0.0725,-1.203e-4 -0.14505,1.384e-4 -0.21756,0 -0.0731,-0.00123 -0.1461,-0.00341 -0.21912,0.00202 -0.0833,0.00306 -0.14449,-8.963e-4 -0.22433,-0.019695 -0.005,1.979e-4 -0.0104,3.344e-4 -0.0156,5.05e-4 -0.0338,-9.096e-4 -0.0672,-9.002e-4 -0.10097,-0.00252 -0.0404,-0.00206 -0.0805,-0.014023 -0.12075,-0.01616 -0.0418,-0.00222 -0.0837,5.527e-4 -0.12544,-0.00303 -0.032,-0.00275 -0.0636,-0.010847 -0.0952,-0.01616 -0.0157,-0.0043 -0.0314,-0.00742 -0.0468,-0.012625 -0.0272,-0.0092 -0.0543,-0.019676 -0.0812,-0.029795 -0.0241,6.836e-4 -0.0477,0.00201 -0.0724,5.05e-4 -0.0534,-0.00334 -0.12256,-0.020481 -0.17332,-0.03434 -0.0113,-0.00308 -0.0353,-4.841e-4 -0.0333,-0.011615 4.8e-4,-0.00225 0.006,-7.551e-4 0.009,-0.00152 -0.0111,-3.027e-4 -0.0223,-0.00106 -0.0333,-0.00151 -0.003,-4.158e-4 -0.006,-6.068e-4 -0.009,-0.00101 -0.0484,0.043502 -0.11787,0.074338 -0.21912,0.084336 -0.14645,0.014458 -0.26166,-0.1296335 -0.39192,-0.1974567 -5.2e-4,1.19e-5 -0.001,-1.2e-5 -0.002,0 -0.27071,0.00621 -0.60964,0.012848 -0.88742,0.015655 -0.05,5.049e-4 -0.13318,0.046176 -0.1499,5.05e-4 -8.9e-4,-0.00245 -10e-4,-0.00312 -0.002,-0.00556 -0.0445,3.16e-4 -0.0888,5.011e-4 -0.13324,5.05e-4 -0.13688,-4.807e-4 -0.27378,-5.599e-4 -0.41066,-5.05e-4 -0.13196,6.11e-5 -0.26413,-3e-7 -0.39609,0 -0.23569,1.21e-5 -0.47164,1.2e-6 -0.70733,0 h -0.4549 c -0.0418,0 -0.0836,0.00169 -0.12543,0 -0.0537,-0.00218 -0.10725,-0.00775 -0.16083,-0.011615 0.15122,-0.014379 -0.13469,-0.00772 -0.14209,-0.016665 -0.0923,-0.00688 -0.18388,-0.012894 -0.2769,-0.015655 -0.0847,0.00193 -0.16428,-0.00333 -0.2415,-0.02222 -0.0278,0.00134 -0.0623,0.00128 -0.0984,0.00202 -0.0749,0.00392 -0.14954,-0.00514 -0.22433,-0.00808 -0.31082,0.052534 -0.42959,0.086184 -0.7625,0.074236 -0.17012,-0.00611 -0.34024,-0.025704 -0.50851,-0.05454 -0.0607,0.00551 -0.10855,0.011594 -0.23682,0.015655 -0.0758,0.0024 -0.1516,0.0021 -0.22744,0.00303 -0.1031,0.00569 -0.20584,-0.00642 -0.30865,-0.00909 -0.0346,-8.967e-4 -0.069,0.00202 -0.10357,5.05e-4 -0.0546,-0.0024 -0.10896,-0.00714 -0.16344,-0.010605 -0.12731,-0.00209 -0.25288,-0.025791 -0.37942,-0.03737 l -0.0323,-5.05e-4 c 0.004,6.372e-4 0.0165,0.0017 0.0125,0.00152 -0.0444,-0.00196 -0.0889,-0.00466 -0.13325,-0.00707 -0.12439,-0.00803 -0.24757,-0.02551 -0.37214,-0.03131 -0.0849,-0.00395 -0.14363,-0.00188 -0.23005,-0.00101 -0.42904,0.0099 -0.85854,0.00502 -1.28767,0.00404 -0.35123,-4.508e-4 -0.70222,5.444e-4 -1.05345,5.05e-4 -0.23258,-0.025698 -0.46357,-0.064533 -0.69692,-0.083831 -0.0132,-7.12e-5 -0.0273,2.99e-5 -0.0395,0 -0.0242,-5.5e-5 -0.0681,0.018702 -0.0781,0.00505 -0.0367,0.00255 -0.0754,0.00477 -0.14105,0.010605 -0.23563,0.02093 -0.63146,0.061281 -0.85723,0.077771 -0.0683,0.00499 -0.13839,0.023369 -0.20507,0.00808 -9e-4,-2.077e-4 -10e-4,-2.91e-4 -0.002,-5.05e-4 -0.1389,0.029864 -0.28494,0.024323 -0.42575,0.02424 -0.33843,-1.998e-4 -0.27667,-4.236e-4 -0.60636,-5.05e-4 -0.27158,2.316e-4 -0.543,0.00435 -0.81455,-0.00101 -0.26517,-0.008 -0.52928,0.013116 -0.79425,0.021715 -0.0822,0.00509 -0.16442,0.014257 -0.24671,0.01818 -0.0236,0.00112 -0.0467,-0.00113 -0.0703,-0.00101 -0.15015,7.855e-4 -0.30053,0.00484 -0.45022,0.016665 -0.0533,5.844e-4 -0.10702,0.00346 -0.1603,0.00202 -0.0238,-6.42e-4 -0.0474,-0.00383 -0.0708,-0.00808 -0.002,-3.625e-4 -0.002,-0.00375 -0.003,-0.00556 -0.0145,1.66e-4 -0.0291,3.39e-4 -0.0437,5.05e-4 -0.12153,0.020305 -0.23815,0.064394 -0.36278,0.069691 -0.17956,0.01916 -0.21875,0.026995 -0.39504,0.031815 -0.13782,0.00377 -0.27612,-0.010099 -0.41378,0.00303 -0.26577,0.015849 -0.52941,0.00605 -0.79477,-0.015655 -0.0762,-0.00623 -0.15183,-0.0164 -0.22797,-0.02323 -0.0577,-0.00517 -0.11561,-0.00884 -0.17332,-0.01313 -0.0609,-0.00568 -0.12166,-0.012458 -0.18269,-0.016665 -0.12407,-0.00855 -0.30843,-0.014421 -0.43512,-0.019695 -0.2823,-0.011752 -0.56485,-0.022032 -0.84682,-0.039895 -0.0261,-0.00241 -0.0521,-0.00512 -0.0781,-0.00758 -0.005,-8.205e-4 -0.0108,-1.96e-5 -0.0161,-5.05e-4 -0.005,-4.236e-4 -0.0178,-0.00238 -0.0239,-0.00303 -0.0166,-0.00175 -0.0393,-0.00514 -0.0635,-0.00808 -0.0302,-0.00116 -0.0613,5e-6 -0.0916,0 -0.19703,-3.21e-5 -0.39423,-1.661e-4 -0.59127,0 -0.10807,9.47e-5 -0.21627,0.00431 -0.32426,0 -0.005,-1.88e-4 -0.009,-0.00106 -0.013,-0.00151 -0.0204,-0.00199 -0.0405,-0.00524 -0.0609,-0.00657 -0.0161,-0.00105 0.0323,0.00491 0.0484,0.00657 -0.002,-3.79e-5 -0.004,5.8e-6 -0.007,0 -0.0951,0.00175 -0.19014,0.00664 -0.28522,0.00657 -0.0429,-3.42e-5 -0.1184,0.037312 -0.12908,-0.00303 -0.002,-0.00867 -0.004,-0.014277 -0.006,-0.022725 h -1.17941 c -0.0539,0.010158 -0.0778,0.042034 -0.14417,0.04141 -0.41541,-0.0039 -0.83103,-0.028939 -1.24655,-0.025755 -0.30787,0.00236 -0.61522,0.030734 -0.92125,0.060096 -0.0438,0.020928 -0.0979,0.015504 -0.14573,0.028785 -3.5e-4,1.549e-4 -0.001,3.503e-4 -0.001,5.05e-4 -0.009,0.00413 -0.0189,0.00833 -0.0291,0.0096 -0.23588,0.029245 -0.24387,0.024147 -0.47364,0.031815 -0.15378,0.011665 -0.30828,0.013464 -0.46218,0.022725 -0.0961,0.00578 -0.19206,0.018009 -0.28835,0.021715 -0.13164,0.00506 -0.23034,0.00165 -0.36329,0 -0.23183,-0.00824 -0.46399,-0.00505 -0.69589,-0.00404 -0.14922,2.961e-4 -0.29838,2.173e-4 -0.44761,0 -0.0306,-4.46e-5 -0.0616,0.00221 -0.0921,0 -0.042,-0.00304 -0.0835,-0.011211 -0.12544,-0.015655 -0.0284,-0.00301 -0.0564,-0.00482 -0.0848,-0.00707 -0.2356,-0.011393 -0.47153,0.004 -0.70629,0.022725 -0.0104,0.00271 -0.0242,0.00625 -0.0364,0.00909 -0.0114,0.00268 0.0215,-0.00582 0.0343,-0.00909 -0.0417,0.00934 -0.0828,0.02168 -0.12543,0.026765 -0.0318,0.00381 -0.0637,-0.0011 -0.0958,-0.00202 -0.21279,-0.00614 0.061,-4.242e-4 -0.20195,-0.00556 -0.21741,-0.00144 -0.43476,0.00144 -0.65216,0.00202 -0.0488,1.306e-4 -0.0976,0.00193 -0.14625,0 -0.0515,-0.00204 -0.1027,-0.00811 -0.15407,-0.01212 -0.17693,-0.025936 -0.35578,-0.0084 -0.53349,-0.01212 -0.0251,-5.253e-4 -0.23481,-0.015563 -0.26492,-0.017675 -0.0306,-0.00159 -0.0615,-0.00377 -0.0921,-0.00455 -0.10417,-0.00264 -0.20866,0.00263 -0.3128,0.00404 -0.14056,0.0019 -0.17937,0.00136 -0.33155,0.00152 -0.28433,-5.772e-4 -0.56874,-0.00178 -0.85307,-0.00101 -0.0421,0.00292 -0.0851,-0.00389 -0.12699,0 -0.0121,0.00111 -0.0236,0.0046 -0.0354,0.00707 -0.0472,0.004 -0.0943,0.0095 -0.14158,0.01212 -0.0631,0.00349 -0.1263,0.00446 -0.18945,0.00657 -0.22125,6.704e-4 -0.44236,-0.00741 -0.66361,-0.00606 -0.31556,0.0016 -0.63067,0.00125 -0.94623,0.00101 -0.026,0 -0.0522,0.00187 -0.0781,0 -0.0662,0.00139 -0.12991,-0.019135 -0.19518,-0.024745 -0.0814,-0.007 -0.16585,-9.621e-4 -0.24723,0.00101 -0.0475,-0.00292 -0.0952,-0.00513 -0.14261,-0.00859 -0.17464,-0.012723 -0.0483,-0.010232 -0.25452,-0.013635 -0.0794,-0.00131 -0.167,0.00352 -0.24566,-0.0101 -0.0491,-0.0085 -0.0964,-0.02491 -0.1447,-0.03737 -0.009,-0.0015 -0.0164,-0.00398 -0.0255,-0.00455 -0.001,-7.72e-5 0.001,0.00205 0.002,0.00303 -0.034,-0.00219 -0.0681,-0.00387 -0.10201,-0.00657 -0.20845,-0.016536 -0.41627,-0.041797 -0.62406,-0.064641 -0.16389,-0.020641 -0.19178,-0.028259 -0.3456,-0.033835 -0.0477,-0.00173 -0.11646,0.0038 -0.16239,0.00657 -0.13518,0.00812 -0.0779,0.00552 -0.2264,0.0096 -0.16819,-6.274e-4 -0.33615,-0.0037 -0.50435,-0.00404 -0.15413,-3.117e-4 -0.0958,-0.00828 -0.18529,0.00808 -0.0987,0.019199 -0.19328,0.048839 -0.29407,0.059085 -0.0644,0.00654 -0.12916,0.00572 -0.19362,0.011615 -0.39699,0.016302 -0.79513,0.00569 -1.19242,0.00455 -0.0679,5.26e-5 -0.13561,-1.07e-4 -0.2035,0 -0.0254,4e-5 -0.0507,3.62e-5 -0.076,5.05e-4 -0.0226,0.00356 -0.0444,0.0079 -0.0687,0.0101 -0.56299,0.050956 -1.12525,0.1053171 -1.68791,0.1595814 -0.24135,0.023276 -0.37651,0.043612 -0.61,0.042925 -0.0486,-1.427e-4 -0.0969,-0.00708 -0.14522,-0.010605 -0.0479,-0.013801 -0.0955,-0.029975 -0.14417,-0.04141 l 0.0333,0.015655 c 1.2e-4,0.0013 0.002,0.00393 5.2e-4,0.00404 -0.0933,0.00736 -0.18915,0.00576 -0.28262,0.00757 -0.19246,0.00146 -0.38527,-5.506e-4 -0.57773,-0.00101 -0.0405,-9.65e-5 -0.0809,0.00187 -0.12127,-5.05e-4 -0.042,-0.00247 -0.0841,-0.00935 -0.12596,-0.01414 -0.6475,-0.3687935 -0.0821,-0.047176 -0.0791,-0.037875 0.0141,0.038057 -0.0837,0.00223 -0.12544,0.00354 -0.0895,0.00277 -0.17863,0.00568 -0.26805,0.00859 -0.16818,-0.013573 -0.0927,-0.00272 -0.22692,-0.026765 -0.0102,-0.00182 -0.0198,-0.00553 -0.0302,-0.00555 -0.0341,-8.21e-5 -0.0685,0.0054 -0.10254,0.00505 -0.0603,-6.196e-4 -0.30588,-0.012587 -0.38203,-0.01616 -0.2721,-0.00565 -0.54392,0.00211 -0.81611,0.00202 -0.43374,-0.00166 -0.86745,-0.00119 -1.3012,-0.00101 -0.16942,4.56e-5 -0.27038,0.00293 -0.44241,-0.01111 -0.10559,-0.00862 -0.20985,-0.029371 -0.31541,-0.03838 -0.0273,-0.00233 -0.0543,-0.00146 -0.0817,-0.00303 -0.0387,-0.00223 -0.0779,-0.00529 -0.11659,-0.00808 -0.42286,-0.010302 -0.84597,-0.00164 -1.26893,-0.00101 -0.15486,-0.012469 -0.30703,0.019023 -0.46114,0.02424 -0.19359,0.00656 -0.027,-0.00644 -0.18113,0.00757 -0.0519,0.00281 -0.10323,0.00472 -0.1551,0.00859 -0.24469,0.018274 -0.017,0.010015 -0.29303,0.02424 -0.12651,0.00652 -0.25246,0.00234 -0.37891,-0.00202 -0.10889,-0.00347 -0.21742,-0.00335 -0.32634,-0.00253 -0.0226,1.728e-4 -0.0457,0.00235 -0.0682,0.00101 -0.0959,-0.00573 -0.12315,-0.011536 -0.20715,-0.024745 -0.11697,-6.333e-4 -0.22609,0.00246 -0.34403,-0.00707 -0.22614,-0.018263 0.0154,-0.00608 -0.16135,-0.013635 -0.0472,-0.00392 -0.0944,-0.0075 -0.14157,-0.01212 -0.14194,-0.013928 -0.1913,-0.023721 -0.3279,-0.031815 -0.0353,-0.00209 -0.0708,-0.00168 -0.10618,-0.00303 -0.13698,-0.00629 -0.1616,-0.00673 -0.19935,-0.00808 -0.38375,0.1052433 -0.76595,0.2164529 -1.15546,0.2989627 -0.14369,0.030439 -0.29471,0.0019 -0.44085,0.017675 -0.17319,0.018688 -0.34379,0.055251 -0.51527,0.085346 -1.03552,0.181739 -1.86621,0.4006575 -2.87877,0.3307779 -0.78897,-2.062e-4 -1.5782,0.014867 -2.36714,0.00101 -1.03927,-0.014511 -2.06787,-0.078133 -3.09894,0.085851 -1.37816,-0.1345775 -1.65427,-0.1779115 -2.28282,-0.4226888 -1.34531,0.062383 -2.61876,0.1720847 -3.98115,-0.2737124 -0.009,-0.00278 -0.015,-0.00973 -0.0234,-0.012625 -0.0305,-0.00148 -0.0588,-0.015346 -0.089,-0.01717 -0.0795,0.029714 -0.17454,0.048985 -0.28991,0.048985 -0.40394,0 -0.19205,0.00522 -0.66881,-0.02121 -0.12304,-0.00682 -0.24606,-0.012579 -0.36902,-0.020705 -0.0884,-0.00584 -0.32199,-0.028159 -0.43252,-0.03131 -0.0524,-0.00149 -0.10481,2.692e-4 -0.15719,5.05e-4 -0.29043,-0.00548 -0.57788,0.036055 -0.86607,0.062621 -0.16755,0.015444 -0.33269,0.02252 -0.49862,0.04747 -0.35455,0.03274 -0.71097,0.044713 -1.06699,0.051511 -0.0884,0.0018 -0.17659,-0.00883 -0.26492,-0.00657 -0.1883,0.00484 -0.37648,0.01896 -0.56472,0.02626 -0.0435,0.00337 -0.0872,0.00684 -0.13064,0.0101 -0.0785,0.00589 -0.13064,0.010403 -0.20819,0.01111 -0.069,6.29e-4 -0.13816,-0.00601 -0.20715,-0.00404 -0.0256,7.3e-4 -0.0506,0.00504 -0.076,0.00757 -0.20013,0.024148 -0.40188,0.015356 -0.60272,0.01111 -0.0996,-0.00488 -0.19977,0.00633 -0.29927,0.00101 -0.0436,-0.00233 -0.0867,-0.00882 -0.13012,-0.01313 -0.14531,-0.014428 -0.0544,-0.00476 -0.23058,-0.02626 -0.13132,-0.021805 -0.26326,-0.031226 -0.39296,-0.062115 -0.0417,-0.00992 -0.0821,-0.023981 -0.12335,-0.03535 -0.0967,-0.026651 -0.0782,-0.020817 -0.17905,-0.03939 -0.11925,-0.017833 -0.2345,-0.059567 -0.35444,-0.073731 -0.0259,-0.00305 -0.0522,-0.00281 -0.0781,-0.00505 -0.1031,-0.00894 -0.19696,-0.020723 -0.30031,-0.032825 -0.10974,-0.019098 -0.16425,-0.024811 -0.26753,-0.056055 -0.002,-6.995e-4 -0.004,-0.00178 -0.007,-0.00253 -0.056,0.00472 -0.11207,0.00969 -0.16812,0.01414 -0.25292,5.61e-5 -0.50593,-4.955e-4 -0.75886,0 -0.30221,9.03e-4 -0.6045,0.00288 -0.90667,-0.00404 -0.0624,-5.302e-4 -0.24334,-0.00278 -0.30709,-5.05e-4 -0.0645,0.00231 -0.12821,0.014747 -0.19257,0.019695 -0.0899,0.00691 -0.18049,0.00347 -0.27013,0.01515 -0.0593,0.00374 -0.11861,0.00851 -0.17801,0.01111 -0.14828,0.00649 -0.29723,-0.00625 -0.44553,5.05e-4 -0.22509,1.29e-5 -0.45051,-0.0038 -0.67558,-5.05e-4 -0.38734,0.00939 -0.77845,0.029824 -1.16223,-0.033835 -0.0905,-0.00154 -0.26438,0.00303 -0.34143,-0.03838 -0.0125,-0.00673 -0.0259,-0.014182 -0.039,-0.02121 -0.44727,7.87e-5 -0.89457,2.908e-4 -1.3418,5.05e-4 -0.69099,2.473e-4 -1.38256,-0.00161 -2.07359,-0.00151 -1.00211,0.00267 -2.00504,0.0181 -3.00681,-0.0101 -1.07091,-0.028601 -2.13778,0.1821907 -3.19782,-0.03838 -0.67945,-0.2766915 -0.71827,-0.3269847 -0.82392,-0.3787534 -0.24147,-0.00348 -0.48292,-0.00681 -0.72451,0 -0.3844,0.012594 -0.25372,0.00673 -0.60271,0.023735 -0.0421,0.00205 -0.0839,0.00903 -0.12596,0.0101 -0.0323,8.19e-4 -0.0646,-0.00246 -0.0968,-0.00354 -0.0752,0.00232 -0.15067,0.00475 -0.22589,0.00707 -0.46267,0.02533 -0.27734,0.012376 -0.72971,0.04747 -0.143035,0.011097 -0.285762,0.023584 -0.428874,0.033835 -0.07399,0.0053 -0.149566,0.027577 -0.222244,0.01313 -0.134414,-0.026719 -0.25076,-0.1270126 -0.387757,-0.1343312 -0.09671,-0.00517 0.172771,0.084843 0.259198,0.1272611 -0.245786,-0.017482 -0.491664,-0.018141 -0.73804,-0.01212 -0.234505,0.00573 -0.447565,0.00553 -0.667775,0.082316 -0.03776,0.00327 -0.07557,0.00838 -0.113464,0.0096 -0.130802,0.00419 -0.24911,-0.00286 -0.37995,-0.01919 -0.06647,-0.0083 -0.132241,-0.021854 -0.198303,-0.032825 -0.02766,-0.00774 -0.05484,-0.018888 -0.08328,-0.02323 -0.02905,-0.00443 -0.05857,-0.00206 -0.08796,-0.00303 -0.105856,-0.011853 -0.228847,-0.00741 -0.330504,-0.00657 -0.463256,0.00386 -0.926112,0.022843 -1.38916,0.03535 -0.186693,0.00197 -0.162126,-0.00253 -0.35913,0.01717 -0.08742,0.00874 -0.174218,0.022737 -0.261801,0.029795 -0.371486,0.029937 -0.426621,0.027326 -0.808305,0.0101 -0.146326,-0.0066 -0.292035,-0.017504 -0.438244,-0.02626 -0.171599,-0.00938 -0.343518,-0.022266 -0.515274,-0.02828 -0.479137,-0.016776 -0.325127,0.00975 -0.734917,-0.020705 -0.07017,-0.00522 -0.139986,-0.013783 -0.209753,-0.022725 -0.0015,-1.895e-4 9.9e-4,-0.00395 -5.21e-4,-0.00404 -0.03843,-0.00235 -0.07705,-0.00212 -0.115546,-0.00303 -0.08413,-0.00303 -0.318013,-0.011255 -0.388799,-0.012625 -0.277112,-0.00536 -0.269874,0.00361 -0.567843,-0.01515 -0.04777,-0.00301 -0.09502,-0.011062 -0.142611,-0.01616 -0.0063,-6.714e-4 -0.01248,-0.00137 -0.01874,-0.00202 -0.458118,0.3625765 -0.951767,0.7009528 -0.833808,0.8292173 0.09267,0.00637 0.188396,0.014702 0.265444,0.018685 0.307361,0.015892 0.434929,-4.38e-5 0.272731,0.017675 -0.325601,0.035569 -0.487779,0.018439 -0.538175,-0.03636 -0.21697,-0.014925 -0.450123,-0.031392 -0.621453,-0.04444 C 89.097733,6.70445 88.927487,6.682045 88.758729,6.651283 88.546615,6.6126183 88.340517,6.5473987 88.127908,6.5113968 87.969494,6.4845722 87.8091,6.4696242 87.650108,6.4462512 86.857594,6.3297469 87.45675,6.4013827 86.78403,6.3275752 l -0.569925,-0.041915 c -0.112129,-0.013373 -0.223671,-0.030512 -0.33623,-0.039895 -0.436779,-0.036412 -0.88118,0.014564 -1.310046,-0.099486 -0.294572,-0.042422 -0.589898,-0.079676 -0.884295,-0.1232211 -0.151061,-0.022344 -0.301017,-0.051819 -0.452297,-0.072721 -0.871277,-0.1203819 0.41153,0.085906 -0.634464,-0.077266 -0.01695,-0.00264 0.03437,0.00102 0.05153,0.00152 -0.253093,-0.045637 -0.0801,-0.021438 -0.524644,-0.02121 -0.404863,2.081e-4 -0.80942,0.00103 -1.214278,-0.00152 -0.779797,-0.00795 -1.559721,0.019874 -2.339555,0.00808 -0.124834,-0.00693 -0.25564,0.015718 -0.374745,-0.02121 -0.01173,-0.00364 -0.0336,-0.010012 -0.04736,-0.01414 -0.07913,0.00572 -0.158481,0.011729 -0.237339,0.0202 -0.155507,0.016704 -0.310572,0.037784 -0.465829,0.056561 -0.627518,0.075893 -1.0917,-0.056615 -1.37875,-0.2848226 -0.136421,-0.0035 -0.251455,-0.00562 -0.421068,-0.014645 -0.03549,-0.0019 -0.07145,-0.00418 -0.106698,-0.00859 -0.0085,-0.00107 -0.01538,-0.00907 -0.02394,-0.00808 -0.177224,0.020488 -0.347384,0.086493 -0.527246,0.090901 -0.24514,0.021808 -0.599203,0.056116 -0.83589,0.06262 -0.364407,0.010014 -0.729013,-0.040861 -1.093527,-0.02323 -0.231472,0.022593 -0.462295,0.05296 -0.693799,0.075246 -0.457869,0.044077 -0.914787,0.06248 -1.374586,0.062621 -0.170987,5.22e-5 -0.342206,-6.8e-6 -0.513193,0 -0.783444,-8.962e-4 -1.567089,-0.00725 -2.350485,0.00354 -0.160526,0.00347 -0.26022,0.00733 -0.420027,0.00252 -0.101725,-0.00306 -0.243159,-0.018214 -0.340393,-0.02323 -0.895381,-0.046191 -0.09773,0.015222 -1.175763,-0.082821 -0.664452,-0.071504 -0.94888,-0.088655 -1.588503,-0.2055369 -0.127791,-0.023352 -0.249902,-0.074062 -0.378909,-0.089891 -0.102358,-0.012555 -0.205999,0.00654 -0.309165,0.00556 -0.410248,-0.00394 -0.608977,-0.02215 -1.037316,-0.04747 -0.214202,-0.019692 -0.429555,-0.031205 -0.642792,-0.059086 -0.140753,-0.018403 -0.27857,-0.052785 -0.417945,-0.079286 -0.527477,-0.1002937 -1.059296,-0.1898267 -1.598913,-0.1924067 -0.961585,-0.00144 -1.923514,0.053244 -2.884497,-5.05e-4 -0.157888,-0.020151 -0.405797,-0.054037 -0.55379,-0.061611 z m 111.21396,1.4877432 c 3.6e-4,-1.9e-6 0.001,-2.9e-6 0.002,0 0.005,-0.00138 0.0195,-0.005 0.0146,-0.00404 -0.006,0.00109 -0.0111,0.00277 -0.0167,0.00404 z m -2.20683,-0.8080072 c -0.0537,0.00635 -0.1004,0.032163 -0.14574,0.062116 0.0324,1.961e-4 0.0649,-1.569e-4 0.0973,5.05e-4 0.0573,-0.039247 0.0956,-0.068197 0.0484,-0.062621 z m -12.631,0.070196 -0.19361,0.051006 c 0.0503,0.01269 0.0993,0.029189 0.14781,0.047975 0.012,-0.00147 0.0321,-0.0052 0.0947,-0.00505 0.18668,4.485e-4 0.37343,0.00267 0.56003,0.00152 0.38179,-0.00701 -0.15224,0.00319 0.19883,-0.00556 0.10723,-0.00267 0.21118,-0.00328 0.31385,0.024745 0.1015,0.010497 0.22827,0.00101 0.34976,-0.01111 0.004,-0.029339 -0.0273,-0.057516 -0.0135,-0.085346 -0.46522,-0.00307 -0.93144,0.026359 -1.39541,-0.010605 -0.0208,-0.00252 -0.0412,-0.00657 -0.0625,-0.00758 z m 57.19289,0.2923976 c 0.002,0.043087 0.0111,0.087884 0.0198,0.1328162 l 5.2e-4,-5.05e-4 c 0.002,-0.019309 0.004,-0.040228 0.003,-0.053026 -0.003,-0.02254 -0.0106,-0.044016 -0.0156,-0.066155 -0.002,-0.0044 -0.005,-0.00876 -0.007,-0.01313 z m -66.95656,0.2525023 c -0.14356,0.028949 -0.2918,0.037417 -0.43356,0.074236 -0.15951,0.04143 0.36462,-0.057264 0.49081,-0.064641 -0.019,-0.00342 -0.0383,-0.0062 -0.0572,-0.0096 z m 59.4757,0.092921 c 0.001,0.041901 0.002,0.033359 0.0573,0.028785 -0.008,-0.010026 -0.014,-0.016905 -0.0219,-0.02626 -0.0118,-9.13e-4 -0.0236,-0.00152 -0.0354,-0.00253 z" /><path
         id="path1"
         clip-path="url(#clipPath44)"
         style="mix-blend-mode:normal;fill:url(#linearGradient5);fill-opacity:1;stroke:none;stroke-width:0.264583px;stroke-linecap:butt;stroke-linejoin:miter;stroke-opacity:1"
         transform="translate(-0.97854032,-9.6104405)"
         d="m 211.01171,-18.01268 c -1.25726,-0.28713 -4.95836,2.000323 -13.00024,5.00848 4.60389,-0.439825 8.62598,-0.799537 13.4581,-1.027844 0.26927,-2.521156 0.31108,-3.805052 -0.45786,-3.980636 z m 0.0863,7.403683 c -3.86855,0.193649 -7.35832,0.487593 -10.99467,0.8242389 3.26795,0.533662 6.53762,1.0620142 9.80198,1.6164388 0.30358,-0.019902 0.6086,-0.037723 0.90176,0.031523 0.0307,0.00724 0.063,0.01942 0.094,0.026872 0.0692,-0.8014345 0.12502,-1.8051848 0.19688,-2.4990717 z M 3.1923587,2.8304926 c 0.011238,0.027027 0.022836,0.059407 0.034106,0.086816 0.061122,-0.020883 0.1342707,-0.032913 0.1984375,-0.051676 -1.15e-5,-3.378e-4 1.15e-5,-7.678e-4 0,-0.00103 -0.081074,-0.00852 -0.1533012,-0.024063 -0.2325439,-0.034106 z m 7.9690223,1.4877645 c -0.01585,0.057078 -0.02318,0.1104818 -0.03824,0.1674316 0.03064,0.00112 0.06134,9.014e-4 0.09198,0.00207 -0.01728,-0.056572 -0.03697,-0.1128701 -0.05374,-0.1694987 z M 22.147274,4.677925 c 0.395372,0.065371 0.805861,0.1065314 1.305863,0.2092896 0.12539,0.010181 0.250801,0.00341 0.376205,0.00465 -0.0534,-0.015983 -0.108043,-0.027116 -0.161231,-0.043925 L 23.334282,4.713065 C 22.938411,4.704205 22.54278,4.692124 22.147274,4.677925 Z M 192.64178,6.686588 c -0.007,0.00106 -0.0134,0.00205 -0.0202,0.0031 -0.0384,0.020039 -0.0428,0.022644 -0.0894,0.046509 0.008,-4.098e-4 0.0159,-6.971e-4 0.0238,-0.00103 0.0707,-0.039705 0.0436,-0.024963 0.0858,-0.048576 z m -5.59914,0.062528 c -0.0201,0.00259 -0.0398,0.00712 -0.0594,0.011369 -0.005,0.00101 -0.0103,0.011961 -0.008,0.011885 0.0219,-3.434e-4 0.0443,-0.010266 0.0672,-0.023254 z m -0.96842,0.3849895 c -0.10515,0.064174 -0.20942,0.1298523 -0.31471,0.1937866 0.006,8.93e-5 0.0121,4.236e-4 0.0181,5.167e-4 0.0437,-0.020684 0.0857,-0.03981 0.29455,-0.1126546 0.011,-0.00385 0.0224,-0.00635 0.0336,-0.00982 -0.008,-0.017851 -0.0175,-0.034851 -0.0253,-0.05271 -0.003,-0.00616 -0.004,-0.012889 -0.006,-0.01912 z M 98.41497,7.2710484 c -0.161286,0.082097 -0.325217,0.1582277 -0.484208,0.2454631 0.04633,-0.00245 0.09266,-0.00485 0.13901,-0.00723 0.0053,-2.714e-4 0.0077,-2.521e-4 0.01292,-5.168e-4 0.115989,-0.073406 0.219085,-0.1612048 0.332279,-0.2377116 z m 98.87665,0.1348755 c 5.8e-4,0.00328 0.002,0.006 0.002,0.0093 0.0149,0.019857 0.0309,0.038983 0.0465,0.058394 5e-4,-0.022586 -8e-5,-0.045125 0,-0.067696 -0.0162,5.54e-5 -0.0324,-4.04e-5 -0.0486,0 z m -0.31006,0.1529622 c -0.007,1.159e-4 -0.0101,0.00201 -0.0171,0.00258 0.0102,7.32e-5 0.0203,2.878e-4 0.0305,-5.168e-4 0.017,-0.00135 0.004,-0.00237 -0.0134,-0.00207 z m -32.24609,0.2439128 c -0.28678,0.103164 -0.3119,0.1012965 -0.42116,0.1374593 0.0185,-0.00376 0.0375,-0.00454 0.0558,-0.00878 0.1258,-0.029095 0.24357,-0.085773 0.36535,-0.1286743 z m 32.08073,0.027905 c 0.006,0.00426 0.0115,0.00806 0.017,0.012402 0.0263,0.0032 0.10432,0.016352 0.0791,0.00982 -0.0688,-0.017548 -0.0588,-0.013321 -0.0961,-0.022221 z M 58.305274,7.9500767 c -0.560082,-0.029526 -1.3512,0.023188 -1.820044,0.050643 -0.713408,0.041777 -3.362249,0.2378516 -4.031279,0.2868042 -0.572876,0.041917 -0.98761,-0.090598 -1.252636,-0.3033406 -0.117261,0.018703 -0.234432,0.020681 -0.3514,0.047542 -0.06166,0.010386 -0.123397,0.02026 -0.185002,0.031006 -0.476872,0.1866438 -0.97767,0.2867696 -1.511019,0.1875854 -0.231549,-0.0027 -0.47351,-7.7e-4 -0.645955,-0.00103 -1.214301,-0.00192 -1.231543,-0.0011 -2.537313,-0.00103 -1.60877,0.00366 -3.218546,0.03999 -4.826579,-0.020671 -2.121619,-0.04203 -1.617013,-0.023621 -1.090889,-0.011369 -0.413518,0.012371 -0.825161,0.054005 -1.240751,0.034623 -0.17431,-3e-7 -0.348646,9.3e-5 -0.522966,0 -0.253021,0.1068924 -0.228594,0.2906219 -1.029394,0.1762166 -0.22152,-0.031647 -0.433204,-0.105997 -0.645956,-0.1762166 -0.378605,-1.21e-5 -0.75726,-8.415e-4 -1.135848,0 -1.862578,0.00907 -3.726207,0.018899 -5.588289,-0.020671 -0.117649,0.00944 -0.235109,0.022017 -0.35295,0.028422 -0.153558,0.00835 -0.307686,0.00114 -0.461471,0.00155 -0.11116,2.962e-4 -0.222224,2.939e-4 -0.333313,5.168e-4 -1.484482,0.040488 -2.969579,0.1190797 -4.452958,0.065112 -0.217345,0.012851 -0.434678,0.024932 -0.65164,0.044442 -0.245081,0.017425 -0.489917,0.041366 -0.735355,0.05271 -0.113557,0.00525 -0.22802,-0.020794 -0.341065,-0.00878 -0.875024,0.092799 0.738279,-0.035095 -0.650606,0.085783 -0.142687,0.012418 -0.285917,0.016288 -0.428914,0.024288 -0.186602,0.00692 -0.373474,0.017251 -0.560173,0.020671 -0.08631,0.00159 -0.327177,-0.01333 -0.423747,-0.00672 -0.07825,0.00536 -0.155638,0.020656 -0.233577,0.029456 -0.139888,0.015798 -0.279808,0.032607 -0.42013,0.043925 -0.141918,0.011447 -0.284179,0.016177 -0.42633,0.024288 -0.173546,0.010543 -0.346723,0.023547 -0.520382,0.032039 -0.325346,0.015909 -0.652687,0.015972 -0.977201,0.048059 -0.17218,0.017025 -0.343805,0.040521 -0.515731,0.059945 -0.24205,0.027346 -0.483925,0.053463 -0.726054,0.080099 -0.155523,0.010837 -0.311103,0.021895 -0.466638,0.032556 -0.09334,0.0064 -0.522132,0.046306 -0.711584,0.03669 -0.08544,-0.00434 -0.170609,-0.014892 -0.255799,-0.022738 -0.0041,-3.79e-4 0.02589,0.00553 0.01137,-0.00413 -0.137694,-0.013874 -0.08845,-0.012563 -0.317293,0.00413 -0.525892,0.038407 -1.048776,0.1265859 -1.577165,0.1250569 -0.380114,0.022199 -0.75775,0.056943 -1.138949,0.062012 -0.09449,0.00126 -0.188686,-0.017602 -0.283186,-0.01757 -0.07698,2.6e-5 -0.153537,0.0053 -0.230477,0.00775 -0.440994,0.024752 0.110523,-0.01734 -0.550871,0.093534 -0.58201,0.09755 -1.17469,-0.00627 -1.7466645,-0.1126621 C 8.6202477,8.889257 9.3256631,9.0264478 8.723804,8.942781 8.701038,8.939621 8.6806129,8.9253505 8.6576582,8.9241775 8.5951702,8.9209875 8.5326381,8.9292419 8.4700727,8.9298619 8.1628415,8.9329119 8.2070316,8.9295377 7.8892296,8.9081578 7.8311377,8.8992978 7.7709938,8.897679 7.7145633,8.881286 7.6921923,8.874786 7.8079603,8.8805585 7.7848433,8.877666 7.6928212,8.8662303 7.5989222,8.87002 7.5073408,8.8554478 6.7199697,8.7301633 7.9117134,8.8672798 7.0934126,8.7598464 6.8507969,8.6936079 6.9435531,8.7112502 6.5756147,8.679748 6.0491669,8.6346738 5.5206871,8.6043307 4.9922488,8.6058507 c -0.2554239,0.013823 -0.5091849,0.045435 -0.7648112,0.057878 -0.1618567,0.00788 -0.052371,-0.017378 -0.2149739,0.00155 -0.057069,0.00664 -0.1132941,0.018248 -0.1700155,0.027388 -0.1186076,0.015719 -0.2369264,0.036395 -0.3560506,0.047542 -0.049119,0.0046 -0.098462,1.472e-4 -0.1477946,0 C 3.1720768,8.7397152 3.0054213,8.7375569 2.8388919,8.7350417 1.8261299,8.8810361 0.91651764,8.8728178 0.22716499,8.6125686 -0.48237659,102.59194 0.36425051,87.807622 -0.92366915,121.55916 c 0.89318953,1.67496 2.87270355,3.32975 4.75991615,3.12591 3.0634653,-0.33089 3.3840779,-6.5819 6.465238,-6.60735 2.963858,-0.0245 4.649385,3.80562 6.323129,6.25182 4.605805,6.73124 4.424161,16.25916 9.733256,22.45082 2.660066,3.10244 6.285891,6.5205 10.372493,6.53604 5.125828,0.0195 9.609511,-4.32006 13.072587,-8.09925 5.609649,-6.12136 6.499171,-15.41068 11.225155,-22.2374 2.050985,-2.96279 3.862838,-6.934 7.3179,-7.95714 2.555354,-0.75672 5.284229,0.96311 7.743713,1.98954 3.234532,1.34989 5.539165,5.78556 9.022705,5.39916 1.98115,-0.21975 3.174185,-2.49959 4.334102,-4.12068 2.3061,-3.22291 1.648267,-8.64197 4.972823,-10.79883 1.688809,-1.09532 4.063719,-0.45962 6.038912,-0.0708 1.48857,0.29332 2.73714,2.20762 4.19199,1.77612 2.35512,-0.69851 3.11963,-3.86641 4.12068,-6.10971 2.09951,-4.704698 0.44007,-11.055708 3.76514,-14.990814 1.36886,-1.619869 3.79077,-3.152808 5.826,-2.557467 6.2284,1.821678 8.55633,10.108502 10.79883,16.197981 6.69109,18.17009 2.36139,38.84642 6.82025,57.68898 1.09028,4.60723 1.63231,9.86679 4.83123,13.35681 1.44626,1.57772 3.7111,3.03155 5.82549,2.69958 2.48313,-0.38991 4.21383,-2.98046 5.54178,-5.11494 7.67091,-12.32968 5.75465,-28.84439 12.36203,-41.77522 0.95266,-1.86438 1.7471,-4.83859 3.83646,-4.97283 2.74062,-0.17608 3.67631,4.11579 5.82549,5.82549 0.69936,0.55635 1.38111,1.37869 2.27376,1.4211 1.48105,0.0704 3.03754,-0.84402 3.97857,-1.98954 6.01609,-7.32571 2.50157,-19.3886 7.5308,-27.42365 1.63824,-2.617338 3.95666,-5.402766 6.96237,-6.109708 2.52741,-0.59444 5.06035,1.190303 7.53081,1.989026 1.25511,0.405872 2.40398,1.694968 3.69434,1.421102 1.7036,-0.361529 3.62275,-1.954337 3.69435,-3.694348 1.25994,-30.618519 0.38416,-53.504209 0.5178,-85.4614506 -0.003,-3.32e-5 -0.005,2e-5 -0.008,0 -0.087,2.902e-4 -0.16997,0.018275 -0.25787,0.00672 -0.1235,-0.016275 -0.13672,0.00776 -0.11472,-0.028939 -0.0495,-0.04143 2.1e-4,-0.0041 -0.15658,-0.014986 -0.0813,-0.00564 -0.15534,-0.018342 -0.23564,-0.029972 -0.0291,-0.00422 -0.0595,-0.00271 -0.0873,-0.012402 -0.003,-0.0011 0.003,-6.82e-4 0.005,-0.00103 -0.10407,0.00501 -0.20704,0.00731 -0.31161,-0.00258 -0.0511,-0.00483 -0.0755,-0.01552 -0.12351,-0.024288 -0.0204,-0.00373 -0.041,-0.00629 -0.0615,-0.0093 -0.0223,-0.00295 -0.0447,-0.00741 -0.0672,-0.00879 -0.0258,-0.00158 -0.0516,-5.57e-5 -0.0775,0 -0.10515,2.26e-4 -0.21059,0.00231 -0.31574,0.00155 -0.16177,-0.00164 -0.13082,-8.238e-4 -0.29663,-0.00413 -0.1173,-0.0024 -0.23491,-0.00915 -0.35139,0.011886 -0.0476,0.00452 -0.0949,0.010811 -0.14263,0.013436 -0.0345,0.0019 -0.0694,2.377e-4 -0.10387,0 -0.0909,-6.26e-4 -0.18164,-0.00203 -0.27234,-0.00723 -0.13964,0.00789 -0.27808,0.037364 -0.41858,0.026355 -0.10353,-0.00471 -0.2079,0.015547 -0.3116,0.00517 -0.0475,-0.00376 -0.0948,-0.00645 -0.14211,-0.011369 -0.0123,-0.00128 -0.0245,-0.00318 -0.0362,-0.00723 -0.002,-6.77e-4 -0.001,-0.00605 -0.002,-0.0062 -0.0614,-0.00447 -0.12494,0.010062 -0.18604,-0.00465 -0.0703,-0.012309 0.01,-8.74e-5 -0.14676,-0.010852 -0.17709,-0.012159 -0.35268,-0.039951 -0.52917,-0.057878 -0.008,-0.0021 -0.0168,-0.00303 -0.0248,-0.0062 -0.002,-9.62e-4 -0.002,-0.00551 -0.005,-0.00568 -0.0263,-0.00182 -0.0527,-4.699e-4 -0.0791,-5.168e-4 -0.0931,-1.653e-4 -0.18648,-1.793e-4 -0.27957,0 -0.16964,9.14e-4 -0.33941,0.00353 -0.50901,-0.0031 -0.0161,-7.66e-4 -0.0325,-0.0013 -0.0486,-0.00207 0.006,-0.00129 0.0226,2.591e-4 0.0186,-0.00413 -0.005,-0.00472 -0.0121,0.00143 -0.0191,0.00258 -0.0295,0.0052 -0.0592,0.012786 -0.0889,0.016536 -0.12731,0.016092 -0.12717,0.012346 -0.24288,0.010335 -0.10075,-0.00252 -0.10388,-0.00265 -0.21084,-0.00362 -0.055,-4.963e-4 -0.10273,-0.00289 -0.15503,0.016537 -0.11765,0.024053 -0.23984,0.047858 -0.3607,0.038757 -0.0597,-0.0045 -0.14006,0.02069 -0.17776,-0.025838 -0.009,-0.010897 -0.0128,-0.014562 -0.0212,-0.024805 -0.13565,6.323e-4 -0.27105,0.00176 -0.40669,0.00155 -0.0299,-8.922e-4 -0.0595,-0.00149 -0.0894,-0.00258 -0.16114,0.017703 -0.3422,0.033615 -0.45992,0.038241 -0.10236,0.00402 -0.1873,0.00375 -0.27182,0.00155 -10e-4,1.88e-4 -0.002,3.336e-4 -0.003,5.168e-4 -0.0488,0.00866 -0.17773,0.021897 -0.21343,0.025838 -0.0973,-1.1e-5 -0.14671,2.345e-4 -0.24804,-0.00103 -0.0349,-4.59e-4 -0.07,-0.00115 -0.10491,-0.00207 -0.0146,-3.83e-4 -0.0288,-0.00116 -0.0434,-0.00207 -0.007,-4.61e-4 -0.0242,0.00503 -0.0222,-0.00207 6.7e-4,-0.00226 0.004,-0.00217 0.006,-0.0031 -0.0124,0.0033 -0.0451,0.00961 -0.0873,0.016537 -2.8e-4,4.061e-4 -0.004,0.00227 -0.005,0.00258 -0.004,7.013e-4 -0.006,5.63e-4 -0.0124,0.00155 0.005,-0.00144 0.004,-0.00114 0.0134,-0.00362 -0.0171,0.00284 -0.012,0.00119 -0.0486,0.00827 -0.0113,0.00219 0.0154,-0.00192 0.0341,-0.00465 -0.0717,0.018373 -0.0165,0.00947 -0.17829,0.031006 -0.0843,1.623e-4 -0.16839,3.75e-4 -0.25269,-0.00103 -0.12864,-6.24e-5 -0.25969,0.016435 -0.38551,-0.017053 -0.0652,-0.0017 -0.13554,-0.00418 -0.19327,-0.025321 -0.0117,-0.00432 0.0251,6.559e-4 0.0377,0.00103 -0.0157,-8.09e-4 -0.0313,-0.00116 -0.047,-0.00207 -0.0117,-6.799e-4 -0.0319,0.00677 -0.0377,0 -0.0664,0.010061 -0.20635,0.030398 -0.11008,0.018087 -0.0969,0.00539 -0.19422,0.024583 -0.29042,0.022738 -0.0255,0.0029 -0.0509,0.00685 -0.0765,0.00878 -0.007,5.278e-4 -0.0701,-4.529e-4 -0.0811,0.0031 -0.0924,0.03005 -0.11506,0.041072 -0.0889,0.021187 -0.14051,0.069118 -0.16843,0.079699 -0.30231,0.076998 -0.072,-1.231e-4 -0.14401,1.416e-4 -0.21601,0 -0.0726,-0.00126 -0.14506,-0.00349 -0.21756,0.00207 -0.0827,0.00313 -0.14345,-9.098e-4 -0.22272,-0.020154 -0.005,2.025e-4 -0.0103,3.422e-4 -0.0155,5.168e-4 -0.0335,-9.308e-4 -0.0668,-8.975e-4 -0.10026,-0.00258 -0.0401,-0.0021 -0.0799,-0.014349 -0.11989,-0.016537 -0.0415,-0.00227 -0.0831,5.567e-4 -0.12454,-0.0031 -0.0318,-0.00281 -0.0632,-0.011099 -0.0946,-0.016536 -0.0156,-0.0044 -0.0312,-0.0076 -0.0465,-0.012919 -0.0271,-0.00941 -0.0539,-0.020134 -0.0806,-0.030489 -0.024,6.995e-4 -0.0479,0.00206 -0.0718,5.167e-4 -0.053,-0.00341 -0.12168,-0.020958 -0.17208,-0.03514 -0.0112,-0.00315 -0.0351,-4.863e-4 -0.0331,-0.011886 4.7e-4,-0.00231 0.006,-8.702e-4 0.009,-0.00155 -0.011,-3.097e-4 -0.0221,-0.00108 -0.0331,-0.00155 -0.003,-4.254e-4 -0.006,-6.84e-4 -0.009,-0.00103 -0.0481,0.044515 -0.11702,0.076069 -0.21755,0.0863 -0.14556,0.01481 -0.2603,-0.1327431 -0.38964,-0.2020548 -5.2e-4,1.22e-5 -0.001,-1.23e-5 -0.002,0 -0.26877,0.00635 -0.6053,0.013147 -0.88109,0.01602 -0.0496,5.166e-4 -0.13222,0.047251 -0.14882,5.167e-4 -8.9e-4,-0.0025 -0.001,-0.0032 -0.002,-0.00568 -0.0442,3.235e-4 -0.0881,5.128e-4 -0.13229,5.168e-4 -0.1359,-4.919e-4 -0.27183,-5.729e-4 -0.40773,-5.168e-4 -0.13102,6.26e-5 -0.26225,-2e-7 -0.39326,0 -0.23401,1.24e-5 -0.46827,1.3e-6 -0.70228,0 h -0.45165 c -0.0415,1e-7 -0.083,0.00173 -0.12454,0 -0.0533,-0.00223 -0.10648,-0.00793 -0.15968,-0.011886 0.15014,-0.014714 -0.13373,-0.0079 -0.14108,-0.017053 -0.0917,-0.00704 -0.18257,-0.013194 -0.27492,-0.01602 -0.0841,0.00197 -0.16311,-0.00341 -0.23978,-0.022738 -0.0276,0.00137 -0.0618,0.00131 -0.0977,0.00207 -0.0742,0.00401 -0.14813,-0.00528 -0.22221,-0.00827 -0.30818,0.0537 -0.42622,0.088184 -0.75655,0.075964 -0.16907,-0.00625 -0.33816,-0.026253 -0.50539,-0.055811 -0.0605,0.00565 -0.10801,0.011854 -0.23565,0.01602 -0.0753,0.00246 -0.15052,0.00215 -0.22582,0.0031 -0.10235,0.00582 -0.20437,-0.00657 -0.30644,-0.0093 -0.0343,-9.176e-4 -0.0685,0.00207 -0.10284,5.168e-4 -0.0542,-0.00245 -0.10816,-0.0073 -0.16226,-0.010852 -0.12657,-0.00214 -0.25108,-0.026392 -0.37672,-0.038241 l -0.032,-5.168e-4 c 0.004,6.52e-4 0.0164,0.00174 0.0124,0.00155 -0.044,-0.002 -0.0883,-0.00477 -0.13229,-0.00723 -0.12351,-0.00822 -0.24581,-0.026104 -0.36949,-0.032039 -0.0844,-0.00405 -0.14261,-0.00192 -0.22841,-0.00103 -0.42598,0.010132 -0.85241,0.00514 -1.27847,0.00413 -0.34873,-4.614e-4 -0.69722,5.571e-4 -1.04594,5.168e-4 -0.23091,-0.026297 -0.46026,-0.066036 -0.69194,-0.085783 -0.0128,-7.04e-5 -0.0255,2.98e-5 -0.0382,0 -0.0241,-5.63e-5 -0.0676,0.019119 -0.0775,0.00517 -0.0365,0.00261 -0.0748,0.00488 -0.14004,0.010852 -0.23395,0.021417 -0.62695,0.062708 -0.85111,0.079582 -0.0678,0.0051 -0.13741,0.023895 -0.20361,0.00827 -9e-4,-2.125e-4 -10e-4,-2.977e-4 -0.002,-5.167e-4 -0.13791,0.03056 -0.28292,0.02489 -0.42272,0.024805 -0.33602,-2.045e-4 -0.2747,-4.335e-4 -0.60203,-5.168e-4 -0.26964,2.37e-4 -0.53912,0.00445 -0.80873,-0.00103 -0.26328,-0.00818 -0.52551,0.013422 -0.78859,0.022221 -0.0816,0.00521 -0.16324,0.014589 -0.24494,0.018604 -0.0234,0.00115 -0.0464,-0.00116 -0.0698,-0.00103 -0.14908,8.037e-4 -0.29838,0.00495 -0.447,0.017053 -0.053,5.98e-4 -0.10626,0.00354 -0.15916,0.00207 -0.0236,-6.57e-4 -0.0471,-0.00392 -0.0703,-0.00827 -0.002,-3.71e-4 -0.002,-0.00385 -0.003,-0.00568 -0.0144,1.698e-4 -0.0289,3.469e-4 -0.0434,5.167e-4 -0.12066,0.020778 -0.23644,0.065893 -0.36018,0.071314 -0.17828,0.019606 -0.2172,0.027624 -0.39223,0.032556 -0.13684,0.00386 -0.27415,-0.010325 -0.41083,0.0031 -0.26387,0.016218 -0.52562,0.00619 -0.78909,-0.01602 -0.0757,-0.00638 -0.15075,-0.016782 -0.22635,-0.023771 -0.0573,-0.00529 -0.11478,-0.00904 -0.17208,-0.013436 -0.0605,-0.00581 -0.12078,-0.012748 -0.18138,-0.017053 -0.12318,-0.00875 -0.30623,-0.014757 -0.43202,-0.020154 -0.28028,-0.012026 -0.5609,-0.022545 -0.84077,-0.040824 -0.0259,-0.00247 -0.0517,-0.00524 -0.0775,-0.00775 -0.005,-8.416e-4 -0.0107,-1.69e-5 -0.016,-5.167e-4 -0.005,-4.338e-4 -0.0177,-0.00244 -0.0238,-0.0031 -0.0165,-0.00179 -0.04,-0.00525 -0.0641,-0.00827 -0.03,-0.00119 -0.0598,5e-6 -0.0899,0 -0.19562,-3.29e-5 -0.39141,-1.701e-4 -0.58704,0 -0.1073,9.68e-5 -0.21472,0.00441 -0.32194,0 -0.005,-1.924e-4 -0.009,-0.00108 -0.014,-0.00155 -0.0202,-0.00203 -0.0402,-0.00536 -0.0605,-0.00672 -0.016,-0.00108 0.0315,0.00502 0.0475,0.00672 -0.002,-3.89e-5 -0.004,5.9e-6 -0.007,0 -0.0944,0.00179 -0.18879,0.0068 -0.28319,0.00672 -0.0426,-3.5e-5 -0.11756,0.038172 -0.12816,-0.0031 -0.002,-0.00887 -0.004,-0.01461 -0.006,-0.023254 h -1.17099 c -0.0535,0.010394 -0.0772,0.043013 -0.14314,0.042375 -0.41244,-0.00399 -0.82509,-0.029613 -1.23765,-0.026355 -0.30566,0.00241 -0.61031,0.03145 -0.91416,0.061495 -0.0434,0.021415 -0.0977,0.015876 -0.14521,0.029455 -3.5e-4,1.586e-4 -0.001,3.585e-4 -0.001,5.168e-4 -0.009,0.00422 -0.0187,0.00852 -0.0289,0.00982 -0.23419,0.029926 -0.24213,0.024709 -0.47026,0.032556 -0.15268,0.011937 -0.30608,0.013777 -0.45888,0.023254 -0.0954,0.00592 -0.19069,0.018429 -0.28629,0.022221 -0.1307,0.00518 -0.2287,0.00169 -0.3607,0 -0.23018,-0.00843 -0.46068,-0.00516 -0.69092,-0.00413 -0.14816,3.03e-4 -0.29625,2.224e-4 -0.44441,0 -0.0304,-4.56e-5 -0.0612,0.00226 -0.0915,0 -0.0417,-0.00311 -0.0829,-0.011472 -0.12454,-0.01602 -0.0282,-0.00308 -0.056,-0.00493 -0.0842,-0.00723 -0.23392,-0.011658 -0.46817,0.00409 -0.70125,0.023254 -0.0103,0.00282 -0.0247,0.00631 -0.0372,0.0093 -0.0117,0.00282 0.0234,-0.00617 0.0351,-0.0093 -0.0418,0.00958 -0.0831,0.022144 -0.12557,0.027389 -0.0316,0.0039 -0.0633,-0.00112 -0.0951,-0.00207 -0.21127,-0.00628 0.0606,-5.388e-4 -0.2005,-0.00568 -0.21586,-0.00147 -0.43166,0.00147 -0.64751,0.00207 -0.0484,1.337e-4 -0.0969,0.00197 -0.14521,0 -0.0511,-0.00208 -0.10196,-0.0083 -0.15296,-0.012402 -0.17567,-0.02654 -0.35334,-0.00859 -0.52968,-0.012402 -0.0249,-5.375e-4 -0.23314,-0.015926 -0.26304,-0.018087 -0.0304,-0.00163 -0.0611,-0.00386 -0.0915,-0.00465 -0.10343,-0.0027 -0.20718,0.0027 -0.31057,0.00413 -0.13956,0.00194 -0.17808,0.0014 -0.32918,0.00155 -0.2823,-5.907e-4 -0.56468,-0.00182 -0.84698,-0.00103 -0.0418,0.00298 -0.0845,-0.00398 -0.12609,0 -0.012,0.00114 -0.0234,0.00471 -0.0351,0.00723 -0.0468,0.00409 -0.0937,0.00973 -0.14056,0.012402 -0.0626,0.00357 -0.1254,0.00456 -0.1881,0.00672 -0.21967,6.86e-4 -0.4392,-0.00759 -0.65887,-0.0062 -0.3133,0.00164 -0.62618,0.00128 -0.93948,0.00103 -0.0258,0 -0.0518,0.00191 -0.0775,0 -0.0657,0.00142 -0.12898,-0.01958 -0.19378,-0.025321 -0.0808,-0.00716 -0.16467,-9.46e-4 -0.24547,0.00103 -0.0472,-0.00298 -0.0945,-0.00525 -0.14159,-0.00879 -0.1734,-0.013019 -0.0479,-0.010471 -0.2527,-0.013953 -0.0789,-0.00134 -0.16581,0.00361 -0.24391,-0.010335 -0.0487,-0.0087 -0.0958,-0.02549 -0.14366,-0.038241 -0.008,-0.00154 -0.0163,-0.00407 -0.0253,-0.00465 -10e-4,-7.9e-5 0.001,0.0021 0.002,0.0031 -0.0338,-0.00224 -0.0676,-0.00396 -0.10129,-0.00672 -0.20697,-0.016922 -0.41329,-0.04277 -0.6196,-0.066146 -0.16272,-0.021121 -0.19043,-0.028917 -0.34313,-0.034623 -0.0473,-0.00177 -0.11563,0.00389 -0.16123,0.00672 -0.13422,0.00831 -0.0773,0.00565 -0.22479,0.00982 -0.16699,-6.42e-4 -0.33375,-0.00379 -0.50075,-0.00413 -0.15303,-3.19e-4 -0.0951,-0.00848 -0.18397,0.00827 -0.098,0.019646 -0.1919,0.049976 -0.29197,0.060462 -0.0639,0.0067 -0.12824,0.00585 -0.19224,0.011885 -0.39416,0.016682 -0.78945,0.00583 -1.1839,0.00465 -0.0674,5.39e-5 -0.13466,-1.094e-4 -0.20206,0 -0.0252,4.1e-5 -0.0503,3.68e-5 -0.0754,5.168e-4 -0.0224,0.00365 -0.0436,0.00809 -0.0677,0.010335 -0.55897,0.052143 -1.11723,0.1077696 -1.67587,0.1632975 -0.23963,0.023818 -0.37383,0.044628 -0.60565,0.043925 -0.0482,-1.461e-4 -0.0962,-0.00724 -0.14417,-0.010852 -0.0476,-0.014122 -0.0949,-0.030673 -0.14315,-0.042375 l 0.0341,0.01602 c 1.2e-4,0.00133 0.002,0.00402 0.001,0.00413 -0.0926,0.00753 -0.1878,0.00589 -0.2806,0.00775 -0.19109,0.00149 -0.38252,-5.915e-4 -0.57361,-0.00103 -0.0402,-9.88e-5 -0.0803,0.00191 -0.1204,-5.168e-4 -0.0417,-0.00252 -0.083,-0.00957 -0.12454,-0.014469 -0.64288,-0.3773815 -0.08,-0.048274 -0.077,-0.038757 0.014,0.038943 -0.0831,0.0023 -0.12454,0.00362 -0.0888,0.00284 -0.17734,0.00582 -0.26614,0.00878 -0.16698,-0.013889 -0.092,-0.00278 -0.22531,-0.027388 -0.0101,-0.00186 -0.0197,-0.00566 -0.03,-0.00568 -0.0338,-8.4e-5 -0.068,0.00553 -0.1018,0.00517 -0.0599,-6.341e-4 -0.30371,-0.01288 -0.37931,-0.016537 -0.27016,-0.00579 -0.54003,0.00216 -0.81028,0.00207 -0.43065,-0.0017 -0.86126,-0.00122 -1.29191,-0.00103 -0.16821,4.67e-5 -0.26843,0.003 -0.43925,-0.011369 -0.10484,-0.00882 -0.20836,-0.030055 -0.31316,-0.039274 -0.0271,-0.00239 -0.055,-0.00149 -0.0816,-0.0031 -0.0384,-0.00228 -0.0768,-0.00541 -0.11524,-0.00827 -0.41984,-0.010542 -0.83993,-0.00168 -1.25987,-0.00103 -0.15376,-0.01276 -0.30536,0.019466 -0.45837,0.024805 -0.19221,0.00671 -0.0263,-0.00659 -0.17932,0.00775 -0.0515,0.00288 -0.10301,0.00483 -0.15451,0.00879 -0.24294,0.018699 -0.0169,0.010249 -0.29094,0.024805 -0.1256,0.00667 -0.25065,0.00239 -0.3762,-0.00207 -0.10811,-0.00355 -0.21587,-0.00344 -0.32401,-0.00258 -0.0224,1.769e-4 -0.0449,0.00241 -0.0672,0.00103 -0.0952,-0.00586 -0.12228,-0.011805 -0.20568,-0.025321 -0.11615,-6.48e-4 -0.22448,0.00251 -0.34158,-0.00723 -0.22452,-0.018689 0.0153,-0.00622 -0.16019,-0.013953 -0.0469,-0.00401 -0.0938,-0.00767 -0.14056,-0.012402 -0.14093,-0.014252 -0.18993,-0.024273 -0.32556,-0.032556 -0.0351,-0.00214 -0.0703,-0.00172 -0.10542,-0.0031 -0.13671,-0.00647 -0.16098,-0.00687 -0.19896,-0.00827 -0.381,0.1076942 -0.76049,0.221495 -1.14722,0.3059244 -0.14267,0.031148 -0.29257,0.00195 -0.4377,0.018087 -0.17195,0.019123 -0.34134,0.056538 -0.51159,0.087333 -1.02807,0.1859712 -1.8529,0.4099902 -2.85823,0.3384812 -0.78324,-2.11e-4 -1.56693,0.01584 -2.35024,10e-4 -1.03184,-0.01485 -2.0532,-0.07995 -3.07681,0.08785 -1.36852,-0.137713 -1.64247,-0.18205 -2.26653,-0.4325319 -1.3356,0.063835 -2.59999,0.1760922 -3.95273,-0.2800862 -0.008,-0.00285 -0.015,-0.00996 -0.0233,-0.012919 -0.0299,-0.00149 -0.0577,-0.015214 -0.0873,-0.017053 -0.0788,0.030261 -0.17308,0.049609 -0.28732,0.049609 -0.40106,0 -0.19068,0.00535 -0.66404,-0.021704 -0.12216,-0.00698 -0.24431,-0.012871 -0.36639,-0.021187 -0.0878,-0.00598 -0.31969,-0.028814 -0.42943,-0.032039 -0.052,-0.00153 -0.10406,2.754e-4 -0.15606,5.167e-4 -0.28837,-0.00561 -0.57376,0.036895 -0.8599,0.064079 -0.16635,0.015803 -0.33031,0.023044 -0.49506,0.048576 -0.35202,0.033502 -0.7059,0.045755 -1.05937,0.05271 -0.0877,0.00184 -0.17533,-0.00904 -0.26303,-0.00672 -0.18696,0.00495 -0.37379,0.019402 -0.56069,0.026872 -0.0432,0.00345 -0.0866,0.007 -0.12971,0.010335 -0.0779,0.00602 -0.1297,0.010646 -0.2067,0.011369 -0.0685,6.436e-4 -0.13717,-0.00615 -0.20567,-0.00413 -0.0254,7.47e-4 -0.0503,0.00515 -0.0755,0.00775 -0.1987,0.02471 -0.39902,0.015713 -0.59842,0.011369 -0.0989,-0.005 -0.19834,0.00648 -0.29713,0.00103 -0.0433,-0.00239 -0.0861,-0.00902 -0.1292,-0.013436 -0.14427,-0.014764 -0.054,-0.00488 -0.22892,-0.026872 -0.13039,-0.022313 -0.26139,-0.031946 -0.39016,-0.063562 -0.0414,-0.01015 -0.0815,-0.024539 -0.12247,-0.036174 -0.096,-0.027271 -0.0777,-0.021302 -0.17777,-0.040308 -0.1184,-0.018248 -0.23283,-0.060954 -0.35192,-0.075448 -0.0257,-0.00312 -0.0518,-0.00287 -0.0775,-0.00517 -0.10237,-0.00915 -0.19556,-0.021206 -0.29817,-0.03359 -0.10896,-0.019543 -0.16308,-0.025389 -0.26562,-0.057361 -0.002,-7.158e-4 -0.004,-0.00183 -0.007,-0.00258 -0.0554,0.00481 -0.11091,0.00993 -0.16639,0.014469 -0.25112,5.74e-5 -0.50233,-5.07e-4 -0.75345,0 -0.30006,9.24e-4 -0.60018,0.00294 -0.9002,-0.00413 -0.062,-5.425e-4 -0.24159,-0.00285 -0.30489,-5.168e-4 -0.0641,0.00236 -0.1273,0.015091 -0.1912,0.020154 -0.0893,0.00707 -0.1792,0.00355 -0.2682,0.015503 -0.0589,0.00382 -0.11774,0.00871 -0.17674,0.011369 -0.14722,0.00664 -0.29511,-0.0064 -0.44235,5.167e-4 -0.22349,1.32e-5 -0.4473,-0.00389 -0.67076,-5.167e-4 -0.38458,0.00961 -0.77289,0.030519 -1.15393,-0.034623 -0.0899,-0.00158 -0.2625,0.0031 -0.339,-0.039274 -0.0124,-0.00689 -0.0257,-0.014512 -0.0388,-0.021704 -0.44493,8.04e-5 -0.88986,2.971e-4 -1.3348,5.167e-4 -0.68614,2.53e-4 -1.37266,-0.00165 -2.05879,-0.00155 -0.99507,0.00273 -1.99062,0.018522 -2.98535,-0.010335 -1.06318,-0.029267 -2.12257,0.1864355 -3.175,-0.039274 -0.67451,-0.2831349 -0.71313,-0.3345992 -0.81803,-0.3875733 -0.23872,-0.00355 -0.47741,-0.00694 -0.71624,0 -0.38166,0.012887 -0.25191,0.00688 -0.59841,0.024288 -0.0418,0.0021 -0.0833,0.00924 -0.12506,0.010335 -0.0321,8.38e-4 -0.0641,-0.00253 -0.0961,-0.00362 -0.0747,0.00237 -0.14957,0.00486 -0.22427,0.00723 -0.45937,0.02592 -0.27537,0.012664 -0.72451,0.048576 -0.14203,0.011356 -0.28372,0.024134 -0.42581,0.034623 -0.0735,0.00542 -0.1485,0.028219 -0.22066,0.013436 -0.13345,-0.027341 -0.24897,-0.1299703 -0.38499,-0.1374593 -0.096,-0.00529 0.17154,0.086818 0.25735,0.1302246 -0.24403,-0.017889 -0.48815,-0.018563 -0.732771,-0.012402 -0.232835,0.00586 -0.444371,0.00566 -0.663009,0.084233 -0.03749,0.00334 -0.07503,0.00858 -0.112654,0.00982 -0.129868,0.00429 -0.247332,-0.00293 -0.377238,-0.019637 -0.066,-0.00849 -0.131298,-0.022363 -0.196888,-0.03359 -0.02746,-0.00792 -0.05445,-0.019328 -0.08268,-0.023771 -0.02884,-0.00454 -0.05815,-0.00211 -0.08733,-0.0031 -0.105103,-0.012129 -0.227212,-0.00758 -0.328145,-0.00672 -0.459951,0.00395 -0.919505,0.023375 -1.379244,0.036174 -0.185364,0.00202 -0.160967,-0.00259 -0.356568,0.01757 -0.0868,0.00894 -0.172973,0.023266 -0.259932,0.030489 -0.368837,0.030634 -0.42358,0.027963 -0.802535,0.010335 -0.145284,-0.00676 -0.289951,-0.017912 -0.435116,-0.026872 -0.170375,-0.0096 -0.341068,-0.022785 -0.511596,-0.028939 -0.475719,-0.017166 -0.322803,0.00998 -0.729672,-0.021187 -0.06967,-0.00534 -0.138986,-0.014104 -0.208256,-0.023254 -0.0015,-1.94e-4 9.84e-4,-0.00404 -5.16e-4,-0.00413 -0.03816,-0.0024 -0.0765,-0.00217 -0.114722,-0.0031 -0.08352,-0.0031 -0.315743,-0.011517 -0.386023,-0.012919 -0.275138,-0.00549 -0.267948,0.00369 -0.56379,-0.015503 -0.04743,-0.00308 -0.09434,-0.011319 -0.141593,-0.016536 -0.0069,-7.621e-4 -0.01378,-0.00133 -0.02067,-0.00207 -0.454848,0.3710197 -0.944973,0.7172756 -0.827856,0.848527 0.09201,0.00652 0.187052,0.015044 0.263549,0.01912 0.305167,0.016262 0.431825,-4.49e-5 0.270785,0.018087 -0.323278,0.036398 -0.484297,0.018869 -0.534334,-0.037207 C 90.964849,9.7279764 90.73336,9.7111262 90.563253,9.6977737 90.394958,9.67053 90.225928,9.6476032 90.058374,9.6161249 89.847775,9.5765598 89.643148,9.5098214 89.432056,9.4729812 89.274773,9.4455319 89.115524,9.4302358 88.957666,9.4063186 88.170809,9.2871013 88.765689,9.3604052 88.09777,9.284879 L 87.531914,9.241988 C 87.420585,9.228303 87.309839,9.210766 87.198084,9.201164 86.764422,9.163905 86.323194,9.216067 85.897388,9.0993614 c -0.292469,-0.04341 -0.585687,-0.081532 -0.877983,-0.1260905 -0.149982,-0.022864 -0.298868,-0.053025 -0.449068,-0.074414 -0.865058,-0.1231851 0.408592,0.087906 -0.629936,-0.079065 -0.01683,-0.00271 0.03413,0.00104 0.05116,0.00155 -0.251286,-0.0467 -0.07953,-0.021937 -0.520898,-0.021704 -0.401974,2.13e-4 -0.803643,0.00106 -1.205611,-0.00155 -0.774231,-0.00814 -1.548588,0.020336 -2.322856,0.00827 -0.123943,-0.00709 -0.253816,0.016084 -0.37207,-0.021704 -0.01164,-0.00372 -0.03336,-0.010245 -0.04703,-0.014469 -0.07856,0.00585 -0.15735,0.012002 -0.235644,0.020671 -0.154398,0.017093 -0.308356,0.038663 -0.462505,0.057878 -0.623039,0.07766 -1.083907,-0.057934 -1.368908,-0.2914551 -0.135448,-0.00358 -0.249661,-0.00575 -0.418063,-0.014986 -0.03523,-0.00194 -0.07094,-0.00428 -0.105936,-0.00878 -0.0085,-0.00109 -0.01527,-0.00928 -0.02377,-0.00827 -0.175959,0.020965 -0.344905,0.088508 -0.523483,0.093018 -0.24339,0.022316 -0.594926,0.057423 -0.829923,0.064079 -0.361809,0.010248 -0.72381,-0.041812 -1.085722,-0.023771 -0.22982,0.023119 -0.458995,0.054193 -0.688847,0.076998 -0.4546,0.045103 -0.90826,0.063935 -1.364774,0.064079 -0.169767,5.34e-5 -0.339764,-6.9e-6 -0.50953,0 -0.777852,-9.17e-4 -1.555904,-0.00741 -2.333708,0.00362 -0.159381,0.00355 -0.258363,0.0075 -0.417029,0.00258 -0.100996,-0.00313 -0.241426,-0.018638 -0.337963,-0.023771 -0.888993,-0.047267 -0.09703,0.015576 -1.167371,-0.084749 -0.659707,-0.07317 -0.942104,-0.090719 -1.577165,-0.210323 -0.126879,-0.023896 -0.248115,-0.075787 -0.376204,-0.091984 -0.101627,-0.012847 -0.204528,0.00669 -0.306958,0.00568 -0.40732,-0.00403 -0.604632,-0.022664 -1.029911,-0.048576 C 64.147006,8.3319728 63.93319,8.3201918 63.721478,8.2916618 63.581732,8.272826 63.444899,8.2376439 63.306519,8.2105259 62.782804,8.107897 62.254781,8.0162787 61.719019,8.0136387 60.764297,8.0121587 59.809232,8.0681226 58.855111,8.013122 58.698347,7.992502 58.45221,7.9578267 58.305274,7.9500767 Z M 168.72334,9.4724644 c 5.1e-4,-4.23e-5 0.001,-5.3e-6 0.002,0 0.004,-0.00118 0.0208,-0.00518 0.0155,-0.00413 -0.006,0.00118 -0.0117,0.00279 -0.0176,0.00413 z m -2.18901,-0.8268229 c -0.0533,0.00649 -0.0997,0.032912 -0.1447,0.063562 0.0322,2.005e-4 0.0644,-1.601e-4 0.0966,5.168e-4 0.0569,-0.040161 0.0949,-0.069785 0.0481,-0.064079 z m -12.54187,0.07183 -0.19172,0.052193 c 0.0501,0.012997 0.099,0.029807 0.14727,0.049093 0.0119,-0.0015 0.0319,-0.00532 0.0941,-0.00517 0.18535,4.59e-4 0.37068,0.00275 0.55603,0.00155 0.37906,-0.00717 -0.15115,0.00326 0.19741,-0.00568 0.10647,-0.00273 0.20968,-0.00336 0.31161,0.025322 0.0974,0.010386 0.21908,0.00145 0.33641,-0.010335 0.003,-0.020848 -0.0213,-0.040228 -0.014,-0.060461 -0.45867,-0.00328 -0.91766,-0.00119 -1.37511,-0.038757 -0.0207,-0.00258 -0.0409,-0.00672 -0.062,-0.00775 z m -9.69295,0.5575888 c -0.14254,0.029623 -0.28972,0.038289 -0.43047,0.075964 -0.15837,0.042395 0.36201,-0.058597 0.48731,-0.066146 -0.0189,-0.0035 -0.0379,-0.00635 -0.0568,-0.00982 z m 59.05169,0.095085 c 0.001,0.042876 0.002,0.034135 0.0568,0.029456 -0.008,-0.01026 -0.0139,-0.017298 -0.0217,-0.026872 -0.0117,-9.343e-4 -0.0234,-0.00157 -0.0351,-0.00258 z" /><path
         style="mix-blend-mode:normal;fill:url(#linearGradient21);stroke:none;stroke-width:0.264583px;stroke-linecap:butt;stroke-linejoin:miter;stroke-opacity:1"
         d="m -0.92359243,121.55897 c 0.89321653,1.67496 2.87278373,3.32985 4.76005333,3.12601 3.0635553,-0.33089 3.383879,-6.58179 6.4651471,-6.60724 2.963918,-0.0245 4.649282,3.80581 6.323056,6.25201 4.605955,6.73154 4.423998,16.25844 9.733243,22.4504 2.660156,3.10244 6.285932,6.52066 10.372654,6.5362 5.125978,0.0195 9.609189,-4.32001 13.072385,-8.0992 5.609799,-6.12166 6.499065,-15.41025 11.225199,-22.23727 2.051045,-2.96279 3.862543,-6.93396 7.317695,-7.9571 2.555444,-0.75672 5.284424,0.96285 7.743968,1.98928 3.234622,1.34989 5.539156,5.78586 9.022786,5.39946 1.98121,-0.21975 3.173806,-2.49955 4.333783,-4.12064 2.30616,-3.22291 1.648511,-8.64207 4.973187,-10.79893 1.688839,-1.09562 4.063743,-0.46012 6.038876,-0.071 1.48887,0.29332 2.73684,2.20763 4.19169,1.77613 2.35512,-0.69851 3.11959,-3.86661 4.12064,-6.10991 2.09951,-4.704908 0.44005,-11.055394 3.76542,-14.99062 1.36886,-1.619899 3.7902,-3.153011 5.82573,-2.55764 6.2284,1.821738 8.55643,10.108821 10.79893,16.19839 6.69139,18.17069 2.36121,38.84585 6.82037,57.68901 1.09028,4.60723 1.63189,9.86654 4.83111,13.35656 1.44626,1.57772 3.71134,3.0317 5.82573,2.69973 2.48343,-0.38991 4.21361,-2.9808 5.54156,-5.11528 7.67121,-12.33028 5.75424,-28.84336 12.36192,-41.77479 0.95266,-1.86438 1.74711,-4.83895 3.83647,-4.97319 2.74062,-0.17608 3.67655,4.11603 5.82573,5.82573 0.69936,0.55635 1.38081,1.3785 2.27346,1.42091 1.48105,0.0704 3.03752,-0.84345 3.97855,-1.98927 6.01639,-7.32571 2.5013,-19.38824 7.53083,-27.42359 1.63824,-2.617308 3.95676,-5.402949 6.96247,-6.109921 2.52741,-0.59447 5.06037,1.190522 7.53083,1.989275 1.25541,0.405902 2.40371,1.694809 3.69437,1.420913 1.7036,-0.361529 3.80854,-1.947636 3.69437,-3.694372 C 207.88426,64.699824 168.02439,82.743106 144.38658,83.70287 132.37881,84.190421 122.34557,52.936505 113.38876,57.93778 105.89572,62.121719 95.986374,71.672752 85.282533,82.608263 56.758544,111.74962 -2.5989053,111.75251 -0.92480388,77.267697 c 0.1811571,-3.731655 0.58889798,-3.690249 0.52913256,3.066558 -0.95025778,107.431835 0.81216137,6.106088 -0.52792111,41.224715 z"
         id="path16"
         sodipodi:nodetypes="caaaaaaaaaaaaaaaaaaaaaaaaaaaaaaassssc"
         inkscape:original-d="m -0.92359243,121.55897 c 0.89321653,1.67496 2.87278373,3.32985 4.76005333,3.12601 3.0635553,-0.33089 3.383879,-6.58179 6.4651471,-6.60724 2.963918,-0.0245 4.649282,3.80581 6.323056,6.25201 4.605955,6.73154 4.423998,16.25844 9.733243,22.4504 2.660156,3.10244 6.285932,6.52066 10.372654,6.5362 5.125978,0.0195 9.609189,-4.32001 13.072385,-8.0992 5.609799,-6.12166 6.499065,-15.41025 11.225199,-22.23727 2.051045,-2.96279 3.862543,-6.93396 7.317695,-7.9571 2.555444,-0.75672 5.284424,0.96285 7.743968,1.98928 3.234622,1.34989 5.539156,5.78586 9.022786,5.39946 1.98121,-0.21975 3.173806,-2.49955 4.333783,-4.12064 2.30616,-3.22291 1.648511,-8.64207 4.973187,-10.79893 1.688839,-1.09562 4.063743,-0.46012 6.038876,-0.071 1.48887,0.29332 2.73684,2.20763 4.19169,1.77613 2.35512,-0.69851 3.11959,-3.86661 4.12064,-6.10991 2.09951,-4.704908 0.44005,-11.055394 3.76542,-14.99062 1.36886,-1.619899 3.7902,-3.153011 5.82573,-2.55764 6.2284,1.821738 8.55643,10.108821 10.79893,16.19839 6.69139,18.17069 2.36121,38.84585 6.82037,57.68901 1.09028,4.60723 1.63189,9.86654 4.83111,13.35656 1.44626,1.57772 3.71134,3.0317 5.82573,2.69973 2.48343,-0.38991 4.21361,-2.9808 5.54156,-5.11528 7.67121,-12.33028 5.75424,-28.84336 12.36192,-41.77479 0.95266,-1.86438 1.74711,-4.83895 3.83647,-4.97319 2.74062,-0.17608 3.67655,4.11603 5.82573,5.82573 0.69936,0.55635 1.38081,1.3785 2.27346,1.42091 1.48105,0.0704 3.03752,-0.84345 3.97855,-1.98927 6.01639,-7.32571 2.5013,-19.38824 7.53083,-27.42359 1.63824,-2.617308 3.95676,-5.402949 6.96247,-6.109921 2.52741,-0.59447 5.06037,1.190522 7.53083,1.989275 1.25541,0.405902 2.40371,1.694809 3.69437,1.420913 1.7036,-0.361529 3.80854,-1.947636 3.69437,-3.694372 C 207.03378,51.688079 126.8996,107.10072 127.19222,70.366928 127.60245,18.870959 63.007298,118.36419 30.026611,131.58148 -8.5841915,147.05508 -0.13778824,51.179165 -0.39567132,80.334255 -1.3459291,187.76609 0.41649005,86.440343 -0.92359243,121.55897 Z"
         inkscape:path-effect="#path-effect17"
         transform="matrix(1,0,-0.04814903,1,4.2358934,-9.5101203)" /><path
         style="fill:#fff0af;fill-opacity:1;stroke:none;stroke-width:0.264583px;stroke-linecap:butt;stroke-linejoin:miter;stroke-opacity:1;filter:url(#filter29)"
         d="m 9.2630053,106.31211 c 0,0 -0.1526162,0.46317 2.5494507,1.10476 1.605647,0.38125 7.0364,6.18658 7.0364,6.18658 0,0 -3.110927,-5.4629 -4.06204,-6.18658 -1.673705,-1.27348 -5.5238107,-1.10476 -5.5238107,-1.10476 z"
         id="path29"
         sodipodi:nodetypes="cscsc"
         transform="matrix(0.88893409,0,0,0.96973361,0.96617555,3.7103312)" /><path
         style="mix-blend-mode:normal;fill:#fff0af;fill-opacity:1;stroke:none;stroke-width:0.264583px;stroke-linecap:butt;stroke-linejoin:miter;stroke-opacity:1;filter:url(#filter30)"
         d="m 39.771437,140.72969 c 0.616307,0.27703 5.693773,-3.90915 5.693773,-3.90915 l 4.843956,-6.37363 -3.399268,1.78463 -2.124542,2.71942 -3.05934,3.05934 c 0,0 -3.657571,1.95391 -1.954579,2.71939 z"
         id="path30"
         sodipodi:nodetypes="scccccs" /><path
         style="mix-blend-mode:normal;fill:#ffefa9;fill-opacity:1;stroke:none;stroke-width:0.264583px;stroke-linecap:butt;stroke-linejoin:miter;stroke-opacity:1;filter:url(#filter31)"
         d="m 79.047752,106.56862 c -3.00577,-0.43718 -2.771987,-0.007 0.609971,2.34088 0.647845,0.24238 1.126961,1.08428 1.854284,1.22033 1.271018,0.23774 3.792148,-0.81713 3.792148,-0.81713 0,0 -1.924137,0.68234 -3.633745,-0.22755 -0.667567,-0.3553 -1.936246,-2.13626 -1.936246,-2.13626 z"
         id="path31"
         sodipodi:nodetypes="ccacscc" /><path
         style="fill:#fff0ae;fill-opacity:1;stroke:none;stroke-width:0.264583px;stroke-linecap:butt;stroke-linejoin:miter;stroke-opacity:1;filter:url(#filter32)"
         d="m 100.38224,96.566457 c 0.49317,-0.0049 0.98702,0.140621 1.44219,0.330502 0.44875,0.187199 1.02366,0.341789 1.23187,0.781182 0.14256,0.300853 0.12899,0.770712 -0.12018,0.991505 -0.06,0.05314 -0.16146,0.0139 -0.24037,0 -0.11545,-0.02034 -0.22537,-0.06832 -0.3305,-0.120182 -0.61791,-0.304841 -0.68917,-0.68781 -1.74264,-1.111686 -0.41145,-0.165552 -1.832782,-0.510774 -1.832782,-0.510774 0,0 1.108789,-0.22962 1.352052,-0.300458 0.0793,-0.02309 0.15778,-0.05928 0.24036,-0.06009 z"
         id="path32"
         sodipodi:nodetypes="ssssssscsss" /><path
         style="mix-blend-mode:normal;fill:#fbedaf;fill-opacity:1;stroke:none;stroke-width:0.264583px;stroke-linecap:butt;stroke-linejoin:miter;stroke-opacity:1;filter:url(#filter33)"
         d="m 123.30701,75.955196 c 0,0 3.37373,6.168491 4.80729,9.374216 0.91114,2.037482 1.75212,4.114763 2.40365,6.24948 1.15175,3.77368 2.64401,11.537498 2.64401,11.537498 l 1.20182,-1.68255 c 0,0 -0.48685,-3.407847 -0.84982,-5.088898 -0.82836,-3.836544 -0.89755,-7.537259 -3.02517,-11.379613 -0.85123,-1.537262 -1.66576,-4.191577 -3.09558,-5.885393 -1.10604,-1.310262 -4.0862,-3.12474 -4.0862,-3.12474 z"
         id="path33"
         sodipodi:nodetypes="caaccasac" /><path
         style="mix-blend-mode:normal;fill:#fff1b6;fill-opacity:1;stroke:none;stroke-width:0.264583px;stroke-linecap:butt;stroke-linejoin:miter;stroke-opacity:1;filter:url(#filter34)"
         d="m 142.17439,161.12531 c 2.1042,2.22829 2.08553,2.21079 3.48424,2.54944 0.52959,0.12822 1.13705,0.007 1.61465,-0.25494 1.12585,-0.61828 1.81437,-1.83607 2.54946,-2.88938 0.8897,-1.27485 1.54266,-2.70239 2.21806,-4.10261 0.60162,-1.24727 0.93113,-2.42679 1.63012,-3.82117 0.35492,-0.70798 1.80583,-6.14374 2.05966,-7.29213 1.53997,-6.96717 1.46768,-7.18042 1.52967,-7.56338 0.11108,-0.68615 -1.00833,1.54497 -1.04264,1.64009 -0.31047,0.86094 -0.54704,1.4275 -0.77545,2.15641 -0.13484,0.43031 -0.22871,0.87244 -0.35056,1.3066 -0.46264,1.64841 -0.8557,3.32134 -1.44469,4.92894 -1.03399,2.82217 -2.3397,5.54029 -3.65421,8.24322 -0.56807,1.16808 -1.01959,2.4244 -1.82711,3.44176 -0.45559,0.57399 -1.1086,0.95875 -1.65714,1.44468 -1.34163,1.18852 -5.32713,-0.83917 -4.33406,0.21247 z"
         id="path34"
         sodipodi:nodetypes="saaaassssaaaaass"
         transform="matrix(0.9166692,0,0,1.0085351,11.748745,-1.4061918)" /><path
         style="mix-blend-mode:normal;fill:#fff1b6;fill-opacity:1;stroke:none;stroke-width:0.264583px;stroke-linecap:butt;stroke-linejoin:miter;stroke-opacity:1;filter:url(#filter35)"
         d="m 181.82076,107.66829 c 0,0 0.37956,3.1378 0.0601,4.65706 -0.21627,1.02851 -0.91306,1.89498 -1.30699,2.86936 -0.24696,0.61084 -0.661,1.86282 -0.661,1.86282 0,0 -0.64129,-1.2842 -0.7211,-1.98301 -0.0939,-0.82198 0.0365,-1.67964 0.30046,-2.46373 0.17756,-0.52746 0.62526,-0.92928 0.84128,-1.44219 0.23389,-0.55533 0.33654,-1.15757 0.48072,-1.74264 0.0564,-0.22888 0.0605,-0.47306 0.15023,-0.69106 0.0994,-0.24151 0.42064,-0.66099 0.42064,-0.66099 z"
         id="path35"
         sodipodi:nodetypes="caacaaaaacc" /><path
         style="fill:#fff1b6;fill-opacity:1;stroke:none;stroke-width:0.264583px;stroke-linecap:butt;stroke-linejoin:miter;stroke-opacity:1;filter:url(#filter36)"
         d="m 201.40663,86.426388 c 0,0 0.99255,0.944904 1.61465,1.189744 0.68989,0.271519 1.49387,0.44863 2.20952,0.254945 0.54687,-0.148007 1.35971,-1.019779 1.35971,-1.019779 0,0 -1.57163,-0.436661 -2.37948,-0.509891 -0.93141,-0.08443 -2.8044,0.08498 -2.8044,0.08498 z"
         id="path36"
         sodipodi:nodetypes="caacsc" /></g></g></svg>
